<svg width="8" height="4" viewBox="0 0 8 4" fill="none" xmlns="http://www.w3.org/2000/svg">
<path fill-rule="evenodd" clip-rule="evenodd" d="M7.44904 0.0824742C7.51515 0.0274911 7.59229 0 7.68044 0C7.7686 0 7.84206 0.0274911 7.90083 0.0824742C7.96694 0.14433 8 0.216494 8 0.298969C8 0.381444 7.96694 0.450171 7.90083 0.505155L4.2314 3.91753C4.16529 3.97251 4.08815 4 4 4C3.91185 4 3.83471 3.97251 3.76859 3.91753L0.0991736 0.505155C0.0330575 0.450171 0 0.381444 0 0.298969C0 0.216494 0.0330575 0.14433 0.0991736 0.0824742C0.157943 0.0274911 0.231405 0 0.319559 0C0.407714 0 0.484848 0.0274911 0.550964 0.0824742L4 3.19588L7.44904 0.0824742Z" fill="#20202A"/>
</svg>
