<svg width="41" height="41" viewBox="0 0 41 41" fill="none" xmlns="http://www.w3.org/2000/svg">
<path fill-rule="evenodd" clip-rule="evenodd" d="M24.072 20.4423L14.8937 11.1493C14.7138 10.9607 14.6142 10.7081 14.6165 10.4459C14.6187 10.1837 14.7226 9.93289 14.9057 9.74748C15.0889 9.56207 15.3366 9.45691 15.5955 9.45463C15.8545 9.45235 16.104 9.55314 16.2902 9.7353L26.1668 19.7353C26.3519 19.9228 26.456 20.1771 26.456 20.4423C26.456 20.7075 26.3519 20.9618 26.1668 21.1493L16.2902 31.1493C16.104 31.3315 15.8545 31.4323 15.5955 31.43C15.3366 31.4277 15.0889 31.3225 14.9057 31.1371C14.7226 30.9517 14.6187 30.7009 14.6165 30.4387C14.6142 30.1765 14.7138 29.9239 14.8937 29.7353L24.072 20.4423Z" fill="#20202A"/>
</svg>
