<svg width="20" height="10" viewBox="0 0 20 10" fill="none" xmlns="http://www.w3.org/2000/svg">
<path d="M1 4.26611H0.5V5.26611H1V4.26611ZM19 4.76611L19.3807 5.09024C19.5398 4.90342 19.5398 4.62881 19.3807 4.44199L19 4.76611ZM15.9753 0.44199C15.7963 0.231727 15.4807 0.20639 15.2705 0.385398C15.0602 0.564406 15.0349 0.879973 15.2139 1.09024L15.9753 0.44199ZM15.2139 8.44199C15.0349 8.65225 15.0602 8.96782 15.2705 9.14683C15.4807 9.32584 15.7963 9.3005 15.9753 9.09024L15.2139 8.44199ZM1 5.26611H19V4.26611H1V5.26611ZM19.3807 4.44199L15.9753 0.44199L15.2139 1.09024L18.6193 5.09024L19.3807 4.44199ZM18.6193 4.44199L15.2139 8.44199L15.9753 9.09024L19.3807 5.09024L18.6193 4.44199Z" fill="#005AF0"/>
</svg>
