<svg width="12" height="23" viewBox="0 0 12 23" fill="none" xmlns="http://www.w3.org/2000/svg">
<path fill-rule="evenodd" clip-rule="evenodd" d="M9.61616 11.8845L0.437891 2.59153C0.257982 2.40293 0.158432 2.15033 0.160682 1.88813C0.162932 1.62593 0.266802 1.37512 0.449922 1.18971C0.633041 1.00431 0.880757 0.899136 1.13972 0.896858C1.39868 0.894579 1.64816 0.995374 1.83443 1.17753L11.711 11.1775C11.8961 11.3651 12.0001 11.6194 12.0001 11.8845C12.0001 12.1497 11.8961 12.404 11.711 12.5915L1.83443 22.5915C1.64816 22.7737 1.39868 22.8745 1.13972 22.8722C0.880757 22.8699 0.633041 22.7648 0.449922 22.5793C0.266802 22.3939 0.162932 22.1431 0.160682 21.8809C0.158432 21.6187 0.257982 21.3661 0.437891 21.1775L9.61616 11.8845Z" fill="#20202A"/>
</svg>
