<svg width="16" height="16" viewBox="0 0 16 16" fill="none" xmlns="http://www.w3.org/2000/svg">
<path d="M8.01963 4.99591C8.15062 4.99515 8.28046 5.02037 8.40172 5.07014C8.52298 5.1199 8.63327 5.19323 8.72627 5.28591L12.7073 9.28591C12.8001 9.37915 12.8737 9.48984 12.9239 9.61166C12.9742 9.73348 13 9.86405 13 9.99591C13 10.1278 12.9742 10.2583 12.9239 10.3802C12.8737 10.502 12.8001 10.6127 12.7073 10.7059C12.6145 10.7991 12.5043 10.8731 12.3831 10.9236C12.2619 10.974 12.1319 11 12.0007 11C11.8694 11 11.7395 10.974 11.6182 10.9236C11.497 10.8731 11.3868 10.7991 11.294 10.7059L8.01963 7.39591L4.73528 10.5759C4.64372 10.6782 4.53215 10.7604 4.40753 10.8174C4.28291 10.8744 4.14793 10.9049 4.01103 10.9071C3.87413 10.9093 3.73825 10.8831 3.61189 10.8301C3.48554 10.7771 3.37143 10.6985 3.2767 10.5991C3.18196 10.4998 3.10864 10.3819 3.06132 10.2528C3.014 10.1237 2.99371 9.9862 3.0017 9.84887C3.00969 9.71153 3.04579 9.57733 3.10776 9.45465C3.16972 9.33198 3.25621 9.22347 3.36182 9.13591L7.34286 5.27591C7.52486 5.09959 7.76683 4.99948 8.01963 4.99591Z" fill="#20202A"/>
</svg>
