<svg width="8" height="5" viewBox="0 0 8 5" fill="none" xmlns="http://www.w3.org/2000/svg">
<path fill-rule="evenodd" clip-rule="evenodd" d="M7.44904 0.896561C7.51515 0.841578 7.59229 0.814087 7.68044 0.814087C7.7686 0.814087 7.84206 0.841578 7.90083 0.896561C7.96694 0.958417 8 1.03058 8 1.11306C8 1.19553 7.96694 1.26426 7.90083 1.31924L4.2314 4.73161C4.16529 4.7866 4.08815 4.81409 4 4.81409C3.91185 4.81409 3.83471 4.7866 3.76859 4.73161L0.0991736 1.31924C0.0330575 1.26426 0 1.19553 0 1.11306C0 1.03058 0.0330575 0.958417 0.0991736 0.896561C0.157943 0.841578 0.231405 0.814087 0.319559 0.814087C0.407714 0.814087 0.484848 0.841578 0.550964 0.896561L4 4.00996L7.44904 0.896561Z" fill="#4E4B4B"/>
</svg>
