<svg width="20" height="9" viewBox="0 0 20 9" fill="none" xmlns="http://www.w3.org/2000/svg">
<path d="M19 5H19.5V4H19V5ZM1 4.5L0.619284 4.17588C0.460239 4.36269 0.460239 4.63731 0.619284 4.82412L1 4.5ZM4.02469 8.82412C4.2037 9.03439 4.51926 9.05972 4.72953 8.88072C4.93979 8.70171 4.96513 8.38614 4.78612 8.17588L4.02469 8.82412ZM4.78612 0.824123C4.96513 0.613859 4.93979 0.298292 4.72953 0.119285C4.51926 -0.0597239 4.2037 -0.0343866 4.02469 0.175878L4.78612 0.824123ZM19 4L1 4V5L19 5V4ZM0.619284 4.82412L4.02469 8.82412L4.78612 8.17588L1.38072 4.17588L0.619284 4.82412ZM1.38072 4.82412L4.78612 0.824123L4.02469 0.175878L0.619284 4.17588L1.38072 4.82412Z" fill="#005AF0"/>
</svg>
