<svg width="16" height="17" viewBox="0 0 16 17" fill="none" xmlns="http://www.w3.org/2000/svg">
<g clip-path="url(#clip0)">
<g clip-path="url(#clip1)">
<path d="M7.20108 5.78337H12.3191C13.1823 5.78337 13.799 6.52927 13.614 7.34298L12.7507 11.0725C12.6274 11.615 12.0724 12.0218 11.4558 12.0218H7.20108C6.58446 12.0218 6.09116 11.615 5.96783 11.0725L3.77446 2.867H2.12499" stroke="white" stroke-width="1.25" stroke-miterlimit="10" stroke-linecap="round" stroke-linejoin="round"/>
<path d="M6.61572 15.717C7.16801 15.717 7.61572 15.2693 7.61572 14.717C7.61572 14.1648 7.16801 13.717 6.61572 13.717C6.06344 13.717 5.61572 14.1648 5.61572 14.717C5.61572 15.2693 6.06344 15.717 6.61572 15.717Z" fill="white"/>
<path d="M11.9422 15.717C12.497 15.717 12.9467 15.2693 12.9467 14.717C12.9467 14.1648 12.497 13.717 11.9422 13.717C11.3875 13.717 10.9377 14.1648 10.9377 14.717C10.9377 15.2693 11.3875 15.717 11.9422 15.717Z" fill="white"/>
</g>
</g>
<defs>
<clipPath id="clip0">
<rect width="16" height="16" fill="white" transform="translate(0 0.917023)"/>
</clipPath>
<clipPath id="clip1">
<rect width="15" height="14" fill="white" transform="translate(0 2.16702)"/>
</clipPath>
</defs>
</svg>
