<svg width="32" height="33" viewBox="0 0 32 33" fill="none" xmlns="http://www.w3.org/2000/svg">
<path d="M15.5012 22.3427C16.9581 22.3427 18.2496 21.7903 19.2647 20.7503C20.3019 19.6879 20.7878 18.3494 20.7289 16.8826V7.59225C20.7289 6.14619 20.1738 4.86979 19.1621 3.85416C18.1483 2.81987 16.86 2.27047 15.4071 2.27047H6.07248C4.6106 2.27047 3.32921 2.84581 2.31754 3.8776C1.28412 4.91518 0.750698 6.22366 0.750698 7.6863V17.021C0.750698 18.4779 1.30319 19.7693 2.34311 20.7845C3.39116 21.808 4.70117 22.3427 6.16653 22.3427H15.5012Z" fill="#09A600" stroke="white" stroke-width="4.01289"/>
<path d="M24.8658 31.6265C26.3227 31.6265 27.6141 31.074 28.6293 30.034C29.6665 28.9716 30.1524 27.6331 30.0935 26.1663V16.876C30.0935 15.4299 29.5384 14.1535 28.5267 13.1379C27.5128 12.1036 26.2246 11.5542 24.7717 11.5542H15.437C13.9752 11.5542 12.6938 12.1295 11.6821 13.1613C10.6487 14.1989 10.1153 15.5074 10.1153 16.97V26.3047C10.1153 27.7616 10.6677 29.0531 11.7077 30.0682C12.7557 31.0917 14.0657 31.6265 15.5311 31.6265H24.8658Z" fill="#09A600" stroke="white" stroke-width="4.01289"/>
</svg>
