<svg width="32" height="32" viewBox="0 0 32 32" fill="none" xmlns="http://www.w3.org/2000/svg">
<path d="M8.96323 19.445H6.97746C6.13643 19.445 5.42778 19.1569 4.85152 18.5806C4.27525 18.0043 3.98712 17.2957 3.98712 16.4546V6.47907C3.98712 5.63804 4.27525 4.9294 4.85152 4.35313C5.42778 3.77687 6.13643 3.48874 6.97746 3.48874H16.953C17.7941 3.48874 18.5027 3.77687 19.079 4.35313C19.6552 4.9294 19.9434 5.63804 19.9434 6.47907V8.46484C19.9434 8.77634 19.8499 9.02553 19.663 9.21243C19.4761 9.38375 19.2347 9.46941 18.9388 9.46941C18.6429 9.46941 18.4015 9.38375 18.2146 9.21243C18.0277 9.02553 17.9342 8.77634 17.9342 8.46484V6.47907C17.9342 6.18316 17.8408 5.94175 17.6539 5.75485C17.4826 5.56796 17.2489 5.47451 16.953 5.47451H6.97746C6.68154 5.47451 6.44013 5.56796 6.25324 5.75485C6.06634 5.94175 5.97289 6.18316 5.97289 6.47907V16.4546C5.97289 16.7506 6.06634 16.992 6.25324 17.1789C6.44013 17.3502 6.68154 17.4359 6.97746 17.4359H8.96323C9.27472 17.4359 9.51613 17.5293 9.68745 17.7162C9.87434 17.9031 9.96779 18.1445 9.96779 18.4404C9.96779 18.7363 9.87434 18.9777 9.68745 19.1646C9.51613 19.3515 9.27472 19.445 8.96323 19.445ZM24.6158 27.4114H15.3411C14.4066 27.4114 13.6045 27.0844 12.9348 26.4302C12.2806 25.7917 11.9536 25.0207 11.9536 24.1174V14.8427C11.9536 13.9082 12.2806 13.1139 12.9348 12.4597C13.5889 11.79 14.3598 11.4552 15.2476 11.4552H24.5223C25.4256 11.4552 26.1966 11.7822 26.8352 12.4364C27.4893 13.0905 27.8164 13.8615 27.8164 14.7492V24.0239C27.8631 24.974 27.5672 25.7761 26.9286 26.4302C26.29 27.0844 25.5191 27.4114 24.6158 27.4114ZM15.2476 13.4643C14.905 13.4643 14.6013 13.5967 14.3365 13.8615C14.0873 14.1107 13.9627 14.4066 13.9627 14.7492V24.0239C13.9627 24.3666 14.0873 24.6703 14.3365 24.9351C14.6013 25.1842 14.905 25.3088 15.2476 25.3088H24.5223C24.865 25.3088 25.1609 25.1842 25.4101 24.9351C25.6748 24.6703 25.8072 24.3666 25.8072 24.0239V14.7492C25.8072 14.4066 25.6748 14.1107 25.4101 13.8615C25.1609 13.5967 24.865 13.4643 24.5223 13.4643H15.2476Z" fill="#0389FF"/>
</svg>
