<svg width="49" height="49" viewBox="0 0 49 49" fill="none" xmlns="http://www.w3.org/2000/svg">
<circle cx="24.0363" cy="24.4423" r="19" stroke="#09A600" stroke-width="10"/>
<g clip-path="url(#clip0)">
<path d="M31.8897 9.49652C31.6821 9.15056 31.5437 8.8046 31.5437 8.38944C31.5437 7.97428 31.6821 7.62832 31.8897 7.21316C32.0972 6.8672 32.374 6.59043 32.72 6.38285C33.0659 6.17527 33.4811 6.10608 33.8271 6.10608C34.2422 6.10608 34.6574 6.24446 35.0033 6.45204C35.3493 6.65962 35.5569 6.8672 35.7645 7.14397C35.972 7.42074 36.1104 7.69751 36.1104 8.04348L35.2801 8.25105C35.2109 7.8359 35.0033 7.48993 34.5882 7.28236C34.3806 7.14397 34.1038 7.07478 33.8963 7.07478C33.6195 7.07478 33.4119 7.14397 33.2043 7.21316C32.9967 7.35155 32.7892 7.48993 32.6508 7.7667C32.5124 7.97428 32.4432 8.25105 32.4432 8.45863C32.4432 8.7354 32.5124 8.94298 32.5816 9.15056C32.72 9.35814 32.8584 9.56572 33.1351 9.7041C33.4811 9.91168 33.8963 9.98087 34.3114 9.84249L34.5882 10.6728C34.3114 10.8112 33.9654 10.8112 33.6195 10.742C33.2735 10.6728 32.9276 10.6036 32.6508 10.396C32.374 10.1193 32.0972 9.84249 31.8897 9.49652Z" fill="white"/>
<path d="M37.2175 11.5723L36.7332 11.088L35.4877 12.3335L34.7958 11.6415L37.9095 8.59705L38.6014 9.28897L37.3559 10.5344L37.8403 11.088L39.916 10.6728L40.6772 11.4339L38.1862 11.8491L37.5635 14.4784L36.8024 13.6481L37.2175 11.5723Z" fill="white"/>
<path d="M41.5766 12.7487L42.0609 13.6482L39.57 14.9628L43.0296 15.4472L43.4448 16.2775L39.57 18.3533L39.0856 17.4538L41.5766 16.1391L38.1169 15.6548L37.7018 14.8244L41.5766 12.7487Z" fill="white"/>
<path d="M41.5766 23.4735L39.916 23.8195L39.7084 22.92L40.6079 22.7816L40.0544 19.7371L39.1549 19.8755L39.0165 18.976L40.7463 18.63V18.7684C40.8155 19.0452 41.0231 19.1835 41.4382 19.1835C41.8534 19.2527 42.3377 19.1835 43.0297 19.0452L44.3443 18.8376L44.9671 22.1588L41.5074 22.8508L41.5766 23.4735ZM41.7842 20.1522C41.4382 20.1522 41.1615 20.0831 40.9539 20.0139L41.2998 21.9513L43.9984 21.4669L43.7216 20.0139L43.0989 20.0831C42.5453 20.0831 42.1302 20.1522 41.7842 20.1522Z" fill="white"/>
<path d="M42.3377 26.0336L42.4069 25.3417L40.6771 25.2033L40.7463 24.2346L45.1054 24.6498L44.967 25.6185L43.2372 25.4801L43.168 26.172L44.8286 27.4867L44.7594 28.5246L42.822 26.9331L40.4695 28.1786L40.6079 27.0715L42.3377 26.0336Z" fill="white"/>
<path d="M40.0544 31.5691L40.7463 29.7009L39.9852 29.009L40.3311 28.0403L43.7216 31.4307L43.3756 32.3302L38.6013 32.607L38.9473 31.6383L40.0544 31.5691ZM40.8847 31.5691L42.6837 31.4999L41.369 30.2545L40.8847 31.5691Z" fill="white"/>
<path d="M38.8781 37.7273L38.1862 38.004L37.9786 37.4505L38.7398 37.1737L38.1862 36.6894L38.5322 36.2742L39.0857 36.7586L39.2241 35.9974L39.7776 36.0666L39.6393 36.8277L40.3312 36.551L40.5388 37.1045L39.8468 37.3813L40.4004 37.8656L40.0544 38.2808L39.5009 37.7964L39.3625 38.5576L38.809 38.4884L38.8781 37.7273Z" fill="white"/>
<path d="M31.8896 39.2495C32.3048 39.2495 32.6507 39.3879 32.9967 39.5955C33.3426 39.8031 33.5502 40.149 33.7578 40.495C33.9654 40.9101 34.0346 41.2561 33.9654 41.6713C33.8962 42.0864 33.7578 42.4324 33.5502 42.7783C33.2735 43.1243 32.9967 43.3319 32.5815 43.5395C32.2356 43.6779 31.8896 43.747 31.5436 43.8162C31.1977 43.8854 30.9209 43.747 30.5749 43.6087L30.9209 42.7783C31.3361 42.9859 31.7512 42.9859 32.0972 42.7783C32.3739 42.64 32.5123 42.5016 32.6507 42.294C32.7891 42.0864 32.8583 41.8788 32.8583 41.6021C32.8583 41.3945 32.8583 41.1177 32.7199 40.8409C32.5815 40.5642 32.4431 40.4258 32.2356 40.2874C32.028 40.149 31.8204 40.0798 31.5436 40.0798C31.3361 40.0798 31.0593 40.0798 30.7825 40.2182C30.3674 40.4258 30.1598 40.7026 30.0214 41.1177L29.3295 40.9793C29.3987 40.6334 29.537 40.3566 29.8138 40.149C30.0214 39.8722 30.2982 39.6647 30.6441 39.5263C31.0593 39.3187 31.4744 39.2495 31.8896 39.2495Z" fill="white"/>
<path d="M27.1153 42.4324L27.8073 42.294L27.5305 40.5642L28.4992 40.4258L29.1911 44.7157L28.2224 44.8541L27.9456 43.1935L27.2537 43.3319L26.4234 45.2693L25.3855 45.4769L26.4234 43.1935L24.6244 41.1869L25.7315 40.9793L27.1153 42.4324Z" fill="white"/>
<path d="M23.7249 45.4076L22.7562 45.2692L23.1021 42.4323L20.7496 44.9924H19.7117L20.196 40.6333L21.1647 40.7717L20.8188 43.6086L23.1713 41.0485L24.14 41.1868L23.7249 45.4076Z" fill="white"/>
<path d="M14.799 39.3878L15.491 37.7964L16.3213 38.1424L15.9753 38.9727L18.8122 40.2181L19.1582 39.3878L19.9885 39.7338L19.2966 41.3252L19.1582 41.256C18.8814 41.1868 18.6738 41.256 18.3971 41.5328C18.1203 41.8096 17.8435 42.2939 17.5668 42.9167L16.944 44.1621L13.8995 42.8475L15.2834 39.5954L14.799 39.3878ZM17.4976 41.3944C17.7051 41.1176 17.9127 40.9101 18.1203 40.7717L16.3213 40.0106L15.2142 42.5015L16.5981 43.1242L16.8748 42.5707C17.0824 42.0863 17.29 41.6712 17.4976 41.3944Z" fill="white"/>
<path d="M12.308 38.4884L12.8616 38.9035L13.9687 37.5889L14.7298 38.2116L11.9621 41.5329L11.201 40.9101L12.308 39.5263L11.7545 39.0419L9.74792 39.6646L8.9176 38.9727L11.3393 38.2808L11.6853 35.5823L12.5848 36.3434L12.308 38.4884Z" fill="white"/>
<path d="M9.05598 33.5064L10.2323 35.1671L11.201 34.9595L11.8237 35.7898L7.04939 36.6893L6.49585 35.859L8.98679 31.7766L9.60952 32.6761L9.05598 33.5064ZM8.57163 34.1984L7.60293 35.7206L9.40194 35.3054L8.57163 34.1984Z" fill="white"/>
<path d="M4.55846 29.0781L4.76604 28.317L5.31958 28.4554L5.112 29.2857L5.80393 29.0781L5.94231 29.6317L5.18119 29.8393L5.73473 30.3928L5.31958 30.808L4.76604 30.2544L4.55846 31.0155L4.00492 30.8771L4.21249 30.116L3.45137 30.3236L3.31299 29.7701L4.07411 29.5625L3.52057 29.0089L3.93572 28.5938L4.55846 29.0781Z" fill="white"/>
<path d="M7.18782 24.2346C6.98024 24.5806 6.70347 24.8573 6.35751 25.0649C6.01154 25.2725 5.59639 25.3417 5.18123 25.2725C4.76607 25.2033 4.35092 25.1341 4.00495 24.9265C3.65899 24.719 3.45141 24.373 3.24383 24.027C3.03625 23.6811 3.03625 23.2659 3.03625 22.7816C3.03625 22.4356 3.17464 22.0896 3.31303 21.7437C3.45141 21.4669 3.65899 21.1901 3.93576 20.9825L4.4893 21.6745C4.14334 21.9512 3.93576 22.2972 3.93576 22.7124C3.93576 22.9891 3.93576 23.1967 4.07415 23.4735C4.21253 23.6811 4.35092 23.8886 4.5585 24.027C4.76607 24.1654 4.97365 24.2346 5.25042 24.2346C5.52719 24.2346 5.73477 24.2346 6.01154 24.0962C6.28831 23.9578 6.4267 23.8194 6.56508 23.6119C6.70347 23.4043 6.77266 23.1967 6.77266 22.9199C6.77266 22.5048 6.63428 22.0896 6.28831 21.8129L6.91105 21.1901C7.11863 21.3977 7.32621 21.6745 7.46459 22.0204C7.60298 22.3664 7.60298 22.7124 7.60298 23.0583C7.53378 23.4735 7.3954 23.8886 7.18782 24.2346Z" fill="white"/>
<path d="M6.6342 18.5609L6.42662 19.2528L8.08725 19.8063L7.74129 20.775L3.58972 19.3912L3.93569 18.4225L5.59631 18.976L5.80389 18.2841L4.48923 16.6235L4.83519 15.5856L6.35743 17.5922L8.98676 16.9002L8.64079 18.0073L6.6342 18.5609Z" fill="white"/>
<path d="M5.59644 14.1325L6.14998 13.3022L8.50253 14.8937L7.32625 11.5724L7.8798 10.8113L11.4778 13.3022L10.9243 14.1325L8.57172 12.5411L9.748 15.8623L9.19446 16.6235L5.59644 14.1325Z" fill="white"/>
<path d="M15.145 9.15065L16.1829 10.5345L15.4909 11.088L14.9374 10.3961L12.5157 12.3335L13.0692 13.0254L12.3081 13.579L11.2702 12.1951L11.4086 12.0567C11.6162 11.9184 11.6162 11.6416 11.4778 11.2956C11.3394 10.9497 11.0626 10.4653 10.6475 9.91177L9.81714 8.87388L12.4465 6.7981L14.6606 9.56581L15.145 9.15065ZM12.1005 10.6037C12.2389 10.9497 12.3773 11.1572 12.3773 11.434L13.8995 10.1885L12.2389 8.04357L11.0626 8.94307L11.4086 9.42742C11.6853 9.91177 11.9621 10.2577 12.1005 10.6037Z" fill="white"/>
<path d="M17.0824 7.35155L16.4596 7.62832L17.0824 9.28894L16.1829 9.63491L14.5914 5.55254L15.4909 5.20657L16.1829 6.8672L16.8748 6.59043L17.2899 4.51464L18.2586 4.09949L17.7051 6.59043L19.9193 8.11267L18.8814 8.52782L17.0824 7.35155Z" fill="white"/>
<path d="M23.0329 6.79806L21.0263 7.00564L20.7496 7.97434L19.7117 8.11272L21.1647 3.546L22.1334 3.47681L24.5552 7.55918L23.5173 7.69756L23.0329 6.79806ZM22.6178 6.10613L21.7183 4.5147L21.2339 6.24452L22.6178 6.10613Z" fill="white"/>
<path d="M28.9835 4.99909L29.5371 5.48344L29.1219 5.8986L28.5684 5.34505L28.43 6.10617L27.8765 5.96779L28.0148 5.20667L27.2537 5.48344L27.0461 4.9299L27.8073 4.72232L27.2537 4.23797L27.6689 3.82281L28.2224 4.37635L28.3608 3.61523L28.9143 3.75362L28.7068 4.51474L29.4679 4.23797L29.6755 4.79151L28.9835 4.99909Z" fill="white"/>
</g>
<defs>
<clipPath id="clip0">
<rect width="42" height="41.9308" fill="white" transform="translate(3.03625 3.47681)"/>
</clipPath>
</defs>
</svg>
