<svg width="24" height="25" viewBox="0 0 24 25" fill="none" xmlns="http://www.w3.org/2000/svg">
<path fill-rule="evenodd" clip-rule="evenodd" d="M18.9141 13.6553L12.8955 19.6739L5 11.7784V5.75983H11.0186L18.9141 13.6553ZM20.469 14.9288C20.802 14.6048 21 14.1548 21 13.6598C21 13.1648 20.793 12.7058 20.469 12.3818L12.369 4.28183C12.045 3.95783 11.595 3.75983 11.1 3.75983H4.8C3.81 3.75983 3 4.56983 3 5.55983V11.8598C3 12.3548 3.198 12.8048 3.531 13.1378L11.631 21.2378C11.955 21.5618 12.405 21.7598 12.9 21.7598C13.395 21.7598 13.845 21.5618 14.169 21.2288L20.469 14.9288ZM7.25 9.25983C6.55964 9.25983 6 8.70018 6 8.00983C6 7.31947 6.55964 6.75983 7.25 6.75983C7.94036 6.75983 8.5 7.31947 8.5 8.00983C8.5 8.70018 7.94036 9.25983 7.25 9.25983Z" fill="#1D1D1D"/>
</svg>
