<svg width="32" height="32" viewBox="0 0 32 32" fill="none" xmlns="http://www.w3.org/2000/svg">
<g clip-path="url(#clip0)">
<path d="M15.5552 26.7054C15.6966 26.7589 15.8458 26.7857 16.0029 26.7857C16.1599 26.7857 16.3013 26.7589 16.4269 26.7054C16.5683 26.6652 16.6625 26.5781 16.7096 26.4442L17.7934 25.2589C18.5158 24.4688 19.3797 23.5246 20.3849 22.4263C21.39 21.3281 22.4266 20.1964 23.4947 19.0313C24.5627 17.8661 25.4501 16.9085 26.1568 16.1585C26.7537 15.4755 27.2013 14.7455 27.4997 13.9688C27.8138 13.2054 27.963 12.4487 27.9473 11.6987C27.9473 10.9487 27.7903 10.2322 27.4762 9.54912C27.162 8.86608 26.6908 8.2701 26.0626 7.76117C25.4501 7.29242 24.7511 6.91742 23.9658 6.63617C23.1962 6.35492 22.3874 6.21429 21.5393 6.21429C20.6754 6.21429 19.8509 6.35492 19.0655 6.63617C18.2802 6.91742 17.5578 7.29242 16.8981 7.76117L15.9086 8.60492L14.8956 7.76117C14.2988 7.29242 13.6077 6.91742 12.8224 6.63617C12.0371 6.35492 11.2204 6.21429 10.3722 6.21429C9.52411 6.21429 8.7074 6.35492 7.92209 6.63617C7.13679 6.91742 6.44572 7.29242 5.84889 7.76117C5.00076 8.47099 4.45105 9.2009 4.19975 9.9509C3.94846 10.7009 3.88563 11.4442 4.01128 12.1808C4.15263 12.9174 4.41964 13.6272 4.81229 14.3103L6.15516 16.2388L15.2019 26.4442C15.2961 26.5781 15.4139 26.6652 15.5552 26.7054Z" fill="#5500D7"/>
</g>
<defs>
<clipPath id="clip0">
<rect width="32" height="32" fill="white"/>
</clipPath>
</defs>
</svg>
