<svg width="32" height="32" viewBox="0 0 32 32" fill="none" xmlns="http://www.w3.org/2000/svg">
<g clip-path="url(#clip0)">
<path d="M15.9508 25.7815L15.9502 25.7809L6.94234 15.6193L5.65855 13.7756C5.33175 13.1987 5.11282 12.6086 4.99536 12.0027C4.90129 11.4414 4.94707 10.8681 5.14794 10.2686C5.32072 9.75294 5.72599 9.17063 6.47865 8.53814C6.98037 8.14633 7.57074 7.8242 8.25926 7.57761C8.93454 7.33577 9.63707 7.21429 10.3722 7.21429C11.1074 7.21429 11.8099 7.33577 12.4852 7.57761L12.8224 6.63617L12.4852 7.57761C13.1743 7.82441 13.7651 8.14687 14.2671 8.53912L15.2686 9.37331L15.9162 9.91266L16.5575 9.36584L17.5123 8.55162C18.0858 8.14889 18.7148 7.82397 19.4027 7.57761C20.076 7.33648 20.7862 7.21429 21.5393 7.21429C22.2745 7.21429 22.9668 7.33576 23.6226 7.57541L23.6226 7.57543L23.6287 7.57761C24.3197 7.82511 24.9222 8.14964 25.4438 8.54685C25.9563 8.96441 26.3241 9.43751 26.5676 9.96694C26.8216 10.5193 26.9473 11.0933 26.9473 11.6987V11.7091L26.9476 11.7196C26.9601 12.3188 26.842 12.9392 26.5749 13.5882L26.5705 13.5991L26.5662 13.6101C26.3155 14.2629 25.9361 14.8884 25.4158 15.4868C24.7069 16.2393 23.8205 17.1958 22.7575 18.3556C21.6893 19.5209 20.6526 20.6528 19.6472 21.7512C18.6419 22.8495 17.778 23.7938 17.0553 24.5842L15.9716 25.7694L15.9593 25.7829C15.9564 25.7825 15.9535 25.782 15.9508 25.7815Z" stroke="#0389FF" stroke-width="2"/>
</g>
<defs>
<clipPath id="clip0">
<rect width="32" height="32" fill="white"/>
</clipPath>
</defs>
</svg>
