<svg width="24" height="24" viewBox="0 0 24 24" fill="none" xmlns="http://www.w3.org/2000/svg">
<path fill-rule="evenodd" clip-rule="evenodd" d="M7.93848 6.5C7.93848 7.60457 7.04305 8.5 5.93848 8.5C4.83391 8.5 3.93848 7.60457 3.93848 6.5C3.93848 5.39543 4.83391 4.5 5.93848 4.5C7.04305 4.5 7.93848 5.39543 7.93848 6.5ZM9.93848 6.5C9.93848 8.70914 8.14762 10.5 5.93848 10.5C3.72934 10.5 1.93848 8.70914 1.93848 6.5C1.93848 4.29086 3.72934 2.5 5.93848 2.5C8.14762 2.5 9.93848 4.29086 9.93848 6.5ZM21.9996 6.5C21.9996 5.948 21.6043 5.5 21.1172 5.5H13.8821C13.395 5.5 12.9997 5.948 12.9997 6.5C12.9997 7.052 13.395 7.5 13.8821 7.5H21.1172C21.6043 7.5 21.9996 7.052 21.9996 6.5ZM19.9996 17.5C19.9996 18.6046 19.1041 19.5 17.9996 19.5C16.895 19.5 15.9996 18.6046 15.9996 17.5C15.9996 16.3954 16.895 15.5 17.9996 15.5C19.1041 15.5 19.9996 16.3954 19.9996 17.5ZM21.9996 17.5C21.9996 19.7091 20.2087 21.5 17.9996 21.5C15.7904 21.5 13.9996 19.7091 13.9996 17.5C13.9996 15.2909 15.7904 13.5 17.9996 13.5C20.2087 13.5 21.9996 15.2909 21.9996 17.5ZM2.82081 16.5H10.0548C10.5419 16.5 10.9371 16.948 10.9371 17.5C10.9371 18.052 10.5419 18.5 10.0548 18.5H2.82081C2.33376 18.5 1.93848 18.052 1.93848 17.5C1.93848 16.948 2.33376 16.5 2.82081 16.5Z" fill="#20202A"/>
</svg>
