<svg width="24" height="24" viewBox="0 0 24 24" fill="none" xmlns="http://www.w3.org/2000/svg">
<path d="M11.9995 5.5C16.1913 5.5 19.8259 8.15252 21.4242 12C19.8259 15.8475 16.1913 18.5 11.9995 18.5C7.80773 18.5 4.17317 15.8475 2.57478 12C4.17317 8.15252 7.80773 5.5 11.9995 5.5Z" stroke="#005AF0" stroke-width="2" stroke-linejoin="round"/>
<path d="M14.1208 9.87868C13.5582 9.31607 12.7952 9 11.9995 9C11.2039 9 10.4408 9.31607 9.87819 9.87868C9.31558 10.4413 8.99951 11.2044 8.99951 12C8.99951 12.7956 9.31558 13.5587 9.87819 14.1213C10.4408 14.6839 11.2039 15 11.9995 15C12.7952 15 13.5582 14.6839 14.1208 14.1213C14.6834 13.5587 14.9995 12.7956 14.9995 12C14.9995 11.2044 14.6834 10.4413 14.1208 9.87868Z" fill="#005AF0"/>
</svg>
