<svg width="25" height="25" viewBox="0 0 25 25" fill="none" xmlns="http://www.w3.org/2000/svg">
<path d="M10.7347 20.3357L10.7144 20.3343C10.1605 20.3004 9.60029 20.2495 9.03362 20.1815C8.47387 20.1129 7.92014 20.033 7.37241 19.9417C6.81323 19.8485 6.27186 19.7554 5.74828 19.6623L5.74828 19.6623L5.74221 19.6612C5.66826 19.6486 5.60887 19.6278 5.53258 19.4892C5.37908 19.1697 5.27222 18.8531 5.20802 18.5383L5.10973 17.7193C5.08931 17.447 5.0791 17.1748 5.0791 16.9027C5.0791 16.8648 5.07694 16.8269 5.07263 16.7892C5.05327 16.6197 5.0838 16.4116 5.23451 16.1403L5.23457 16.1403L5.24006 16.1302C5.39202 15.8491 5.55594 15.7023 5.71434 15.6211C6.38532 15.3027 7.05261 15.0408 7.71633 14.834C8.38374 14.6262 9.06834 14.4672 9.77059 14.3575C10.2574 14.2815 10.6162 13.8622 10.6162 13.3695V13.2289C10.6162 12.9637 10.5109 12.7093 10.3233 12.5218C10.1763 12.3748 10.0519 12.2333 9.94774 12.0976C9.90112 12.0194 9.87673 11.9475 9.86569 11.8776C9.86396 11.8666 9.86204 11.8557 9.85994 11.8447L9.77205 11.3877C9.70948 11.0624 9.49019 10.7903 9.18827 10.6592L9.04844 8.94635C9.04752 8.93505 9.04641 8.92377 9.0451 8.91251C9.31758 8.69491 9.45876 8.34882 9.41213 7.99906L9.34312 7.48151C9.32024 7.27476 9.32017 6.92706 9.36456 6.40548L9.36471 6.40372C9.38747 6.1306 9.51607 5.82248 9.8753 5.4718L9.87535 5.47185L9.88386 5.46333C10.1386 5.20858 10.4855 4.9541 10.944 4.70917C11.3306 4.5082 11.7611 4.40271 12.2529 4.40271C12.7244 4.40271 13.1454 4.51003 13.5332 4.72079C13.5408 4.72488 13.5483 4.72887 13.556 4.73277C14.0287 4.97415 14.4024 5.24375 14.6923 5.53364C14.7121 5.55348 14.7328 5.57247 14.7542 5.59057C15.1141 5.8945 15.2167 6.15818 15.2264 6.39662L15.2275 6.41695C15.2622 6.98477 15.2556 7.31602 15.2348 7.46877C15.2287 7.51355 15.2256 7.55869 15.2256 7.60388V7.74451C15.2256 7.74704 15.2256 7.74933 15.2256 7.75138C15.2242 7.75848 15.2229 7.76559 15.2217 7.77272C15.0656 8.17896 15.1905 8.64057 15.5311 8.9125C15.5303 8.91912 15.5296 8.92576 15.529 8.9324L15.3724 10.5672C15.3447 10.5946 15.3187 10.6127 15.2945 10.6258C15.0201 10.7735 14.8303 11.0406 14.7811 11.3482L14.7108 11.7877C14.7032 11.8354 14.699 11.8836 14.6983 11.9319C14.6978 11.934 14.697 11.9368 14.6959 11.9403C14.6899 11.9595 14.6757 11.9958 14.645 12.0502C14.5612 12.1853 14.4553 12.3193 14.3232 12.4515C14.1356 12.639 14.0303 12.8934 14.0303 13.1586V13.2992C14.0303 13.7919 14.3891 14.2111 14.8759 14.2872C15.5789 14.3971 16.2709 14.5563 16.9521 14.7651L16.9564 14.7664C17.6409 14.9728 18.2969 15.2331 18.9249 15.5471C19.0855 15.6275 19.2521 15.7744 19.4064 16.0599L19.4064 16.0599L19.412 16.07C19.5627 16.3413 19.5932 16.5494 19.5739 16.7189C19.5725 16.7306 19.5714 16.7424 19.5704 16.7542L19.4301 18.5432C19.4086 18.788 19.3264 19.0583 19.1542 19.3597L19.1436 19.3787C19.047 19.5568 18.973 19.5791 18.9043 19.5909C18.8897 19.5934 18.8752 19.5962 18.8608 19.5994C18.3397 19.7127 17.8002 19.8149 17.2422 19.906L17.219 19.9101C16.6776 20.0116 16.1301 20.0963 15.5767 20.164L15.5568 20.1667C15.0081 20.2451 14.4661 20.3009 13.9308 20.3343L13.9118 20.3357C13.3628 20.3805 12.8334 20.4027 12.3232 20.4027C11.8131 20.4027 11.2837 20.3805 10.7347 20.3357Z" stroke="#005AF0" stroke-width="2" stroke-linejoin="round"/>
</svg>
