<svg width="24" height="24" viewBox="0 0 24 24" fill="none" xmlns="http://www.w3.org/2000/svg">
<g clip-path="url(#clip0)">
<path d="M10.8016 7.29948H18.4786C19.7735 7.29948 20.6985 8.41833 20.421 9.63889L19.1261 15.2331C18.9411 16.0469 18.1086 16.6571 17.1837 16.6571H10.8016C9.87668 16.6571 9.13673 16.0469 8.95175 15.2331L5.66169 2.92493H3.18748" stroke="#005AF0" stroke-width="2" stroke-miterlimit="10" stroke-linecap="round" stroke-linejoin="round"/>
<path d="M9.92383 22.2001C10.7523 22.2001 11.4238 21.5285 11.4238 20.7001C11.4238 19.8716 10.7523 19.2001 9.92383 19.2001C9.0954 19.2001 8.42383 19.8716 8.42383 20.7001C8.42383 21.5285 9.0954 22.2001 9.92383 22.2001Z" fill="#005AF0"/>
<path d="M17.9129 22.2001C18.7451 22.2001 19.4196 21.5285 19.4196 20.7001C19.4196 19.8716 18.7451 19.2001 17.9129 19.2001C17.0808 19.2001 16.4062 19.8716 16.4062 20.7001C16.4062 21.5285 17.0808 22.2001 17.9129 22.2001Z" fill="#005AF0"/>
</g>
<defs>
<clipPath id="clip0">
<rect width="22.5" height="21" fill="white" transform="translate(0 1.875)"/>
</clipPath>
</defs>
</svg>
