<svg width="24" height="24" viewBox="0 0 24 24" fill="none" xmlns="http://www.w3.org/2000/svg">
<path d="M12.0077 19.9393L4.21804 11.152L3.10225 9.54953C2.8245 9.05803 2.63887 8.55657 2.53906 8.04264C2.46068 7.57337 2.49862 7.09299 2.66808 6.58723C2.80949 6.16519 3.14613 5.67414 3.79262 5.1305C4.21977 4.79725 4.72378 4.522 5.3141 4.31058C5.89122 4.10389 6.49166 4 7.12081 4C7.74996 4 8.3504 4.10389 8.92752 4.31058C9.51845 4.52222 10.0229 4.79782 10.4503 5.13152L11.3252 5.86019L11.9727 6.39953L12.614 5.85271L13.445 5.1441C13.9361 4.79988 14.4749 4.5218 15.0646 4.31058C15.6397 4.10461 16.2469 4 16.892 4C17.5211 4 18.1124 4.10389 18.672 4.30839L18.672 4.30841L18.678 4.31058C19.2709 4.52291 19.7861 4.80057 20.2311 5.1392C20.665 5.4931 20.974 5.89171 21.1782 6.33579L22.0867 5.91797L21.1782 6.33579C21.3929 6.80273 21.499 7.28718 21.499 7.79883V7.8093L21.4992 7.81977C21.5098 8.3252 21.4104 8.85104 21.1826 9.40463L21.1781 9.41554L21.1739 9.42654C20.9604 9.98223 20.637 10.5165 20.1912 11.0295C19.5707 11.6882 18.7952 12.5251 17.8658 13.5391C16.9311 14.5588 16.0239 15.5493 15.1442 16.5104C14.2646 17.4714 13.5086 18.2977 12.8763 18.9893L12.0077 19.9393ZM11.7227 20.3693C11.723 20.3686 11.7232 20.3679 11.7234 20.3672L11.7227 20.3693Z" stroke="#005AF0" stroke-width="2"/>
</svg>
