<svg width="24" height="24" viewBox="0 0 24 24" fill="none" xmlns="http://www.w3.org/2000/svg">
<path d="M16.2796 19.7398C16.1509 19.8101 15.9752 19.8452 15.7528 19.8452C15.5303 19.8569 15.4133 19.8627 15.4015 19.8627C14.5235 19.652 13.6805 19.3652 12.8726 19.0022C12.0648 18.6276 11.3038 18.1827 10.5896 17.6675C9.87542 17.1524 9.21392 16.5728 8.60511 15.9289C7.9963 15.2733 7.45774 14.5649 6.98942 13.8039C6.68502 13.3122 6.41573 12.797 6.18158 12.2585C5.93571 11.7199 5.73082 11.1638 5.56691 10.5901C5.403 10.0164 5.28007 9.42515 5.19811 8.81634C5.10445 8.19582 5.05762 7.56945 5.05762 6.93722C5.05762 6.35183 5.09274 5.77229 5.16299 5.1986C5.24494 4.62491 5.36202 4.06879 5.51423 3.53023L5.4791 3.61803C5.4791 3.61803 5.53179 3.52437 5.63716 3.33704C5.75424 3.14972 5.87132 3.02093 5.9884 2.95068L7.37578 2.12528C7.63336 1.97307 7.93776 1.89697 8.289 1.89697C8.65194 1.89697 8.95635 1.97893 9.20221 2.14284L9.41296 2.26577C9.67053 2.42968 9.88713 2.66969 10.0627 2.98581C10.2501 3.30192 10.3496 3.60633 10.3613 3.89902L10.414 6.04157C10.414 6.33427 10.3262 6.64453 10.1506 6.97235C9.98664 7.28846 9.7759 7.52262 9.51833 7.67482L8.58755 8.21924C8.61097 8.92171 8.72219 9.60663 8.92123 10.274C9.12026 10.9413 9.3954 11.5736 9.74663 12.1707C10.1096 12.7561 10.5486 13.2888 11.0638 13.7688C11.5672 14.2488 12.1292 14.6644 12.7497 15.0157L13.6805 14.4537C13.9264 14.3132 14.2308 14.243 14.5937 14.243C14.9684 14.2312 15.2845 14.2956 15.542 14.4361L17.4387 15.4898C17.6963 15.6303 17.9246 15.8528 18.1236 16.1572C18.3344 16.4616 18.4515 16.7602 18.4749 17.0529L18.4924 17.2987C18.5159 17.5914 18.4456 17.8958 18.2817 18.2119C18.1178 18.528 17.907 18.7622 17.6495 18.9144L16.2796 19.7398Z" fill="white"/>
</svg>
