<svg width="16" height="16" viewBox="0 0 16 16" fill="none" xmlns="http://www.w3.org/2000/svg">
<rect width="16" height="16" fill="white"/>
<path d="M6.8228 13.0387L6.82281 13.0385L6.80929 13.0377C6.44 13.0151 6.06646 12.9812 5.68864 12.9358C5.31551 12.8901 4.9464 12.8369 4.58128 12.776C4.20849 12.7139 3.84758 12.6518 3.49853 12.5897L3.49448 12.589C3.44518 12.5806 3.40559 12.5668 3.35473 12.4743C3.25239 12.2613 3.18116 12.0503 3.13835 11.8404L3.07283 11.2944C3.05921 11.1128 3.05241 10.9314 3.05241 10.75C3.05241 10.7247 3.05097 10.6994 3.0481 10.6743C3.03519 10.5613 3.05554 10.4226 3.15601 10.2417L3.15605 10.2418L3.15971 10.235C3.26102 10.0476 3.37031 9.94968 3.47592 9.89561C3.92323 9.68334 4.36809 9.5087 4.81056 9.37088C5.2555 9.23229 5.7119 9.12636 6.18007 9.05321C6.50458 9.0025 6.74381 8.72299 6.74381 8.39453V8.30078C6.74381 8.12397 6.67358 7.9544 6.54855 7.82938C6.45057 7.73139 6.36761 7.63704 6.29817 7.54662C6.26709 7.49447 6.25082 7.44651 6.24347 7.39993C6.24231 7.3926 6.24103 7.38529 6.23963 7.37801L6.18104 7.07332C6.13933 6.85643 5.99313 6.67505 5.79186 6.58769L5.69864 5.44576C5.69802 5.43823 5.69728 5.4307 5.69641 5.4232C5.87806 5.27813 5.97218 5.04741 5.94109 4.81423L5.89509 4.4692C5.87984 4.33137 5.87979 4.09957 5.90938 3.75185L5.90948 3.75068C5.92465 3.56859 6.01039 3.36318 6.24987 3.12939L6.2499 3.12943L6.25558 3.12375C6.42542 2.95391 6.65666 2.78426 6.96231 2.62097C7.22011 2.48699 7.50711 2.41667 7.83496 2.41667C8.14927 2.41667 8.42997 2.48822 8.68849 2.62872L8.70365 2.63671C9.01879 2.79763 9.26795 2.97736 9.46121 3.17062C9.47444 3.18385 9.48821 3.19651 9.5025 3.20857C9.74244 3.41119 9.8108 3.58698 9.81729 3.74594L9.81715 3.74594L9.81798 3.75949C9.84115 4.13804 9.83673 4.35887 9.82284 4.46071C9.81877 4.49056 9.81673 4.52065 9.81673 4.55078V4.64453C9.81673 4.64622 9.81672 4.64774 9.81671 4.64911C9.81581 4.65385 9.81496 4.65859 9.81417 4.66334C9.71006 4.93416 9.79335 5.24191 10.0204 5.42319C10.0199 5.42761 10.0194 5.43203 10.019 5.43646L9.91464 6.52634C9.89612 6.5446 9.87883 6.55665 9.86264 6.56536C9.67977 6.66384 9.55323 6.84192 9.52042 7.04702L9.47354 7.33999C9.46845 7.3718 9.46568 7.40394 9.46523 7.43615C9.46487 7.43752 9.46435 7.43937 9.46361 7.44172C9.45959 7.45451 9.45015 7.47875 9.42968 7.51498C9.37381 7.60509 9.30322 7.6944 9.21512 7.7825C9.09009 7.90753 9.01986 8.0771 9.01986 8.25391V8.34766C9.01986 8.67611 9.25909 8.95563 9.58361 9.00633C10.0523 9.07956 10.5136 9.18573 10.9677 9.32491L10.9706 9.32577C11.427 9.46341 11.8642 9.63695 12.2829 9.84628C12.39 9.89984 12.5011 9.99781 12.604 10.1881L12.6039 10.1881L12.6077 10.1949C12.7081 10.3757 12.7285 10.5145 12.7156 10.6274C12.7147 10.6353 12.7139 10.6431 12.7133 10.651L12.6198 11.8435C12.6055 12.0068 12.5507 12.187 12.4358 12.388L12.4287 12.4007C12.3643 12.5194 12.315 12.5343 12.2692 12.5421C12.2595 12.5438 12.2498 12.5457 12.2402 12.5478C11.8928 12.6233 11.5331 12.6915 11.1611 12.7522L11.1457 12.7549C10.7847 12.8226 10.4198 12.879 10.0508 12.9242L10.0508 12.9241L10.0376 12.926C9.67172 12.9782 9.3104 13.0155 8.95353 13.0378L8.95352 13.0376L8.94088 13.0387C8.57489 13.0685 8.22192 13.0833 7.88184 13.0833C7.54175 13.0833 7.18879 13.0685 6.8228 13.0387Z" stroke="#20202A" stroke-width="1.33333" stroke-linejoin="round"/>
</svg>
