<svg width="24" height="24" viewBox="0 0 24 24" fill="none" xmlns="http://www.w3.org/2000/svg">
<g clip-path="url(#clip0)">
<path d="M10.8016 7.2996H18.4786C19.7735 7.2996 20.6985 8.41845 20.421 9.63902L19.1261 15.2333C18.9411 16.047 18.1086 16.6573 17.1837 16.6573H10.8016C9.87668 16.6573 9.13673 16.047 8.95175 15.2333L5.66169 2.92505H3.18748" stroke="white" stroke-width="2" stroke-miterlimit="10" stroke-linecap="round" stroke-linejoin="round"/>
<path d="M9.92285 22.2C10.7513 22.2 11.4229 21.5284 11.4229 20.7C11.4229 19.8715 10.7513 19.2 9.92285 19.2C9.09442 19.2 8.42285 19.8715 8.42285 20.7C8.42285 21.5284 9.09442 22.2 9.92285 22.2Z" fill="white"/>
<path d="M17.9129 22.2C18.7451 22.2 19.4196 21.5284 19.4196 20.7C19.4196 19.8715 18.7451 19.2 17.9129 19.2C17.0808 19.2 16.4062 19.8715 16.4062 20.7C16.4062 21.5284 17.0808 22.2 17.9129 22.2Z" fill="white"/>
</g>
<defs>
<clipPath id="clip0">
<rect width="22.5" height="21" fill="white" transform="translate(0 1.875)"/>
</clipPath>
</defs>
</svg>
