<svg width="24" height="25" viewBox="0 0 24 25" fill="none" xmlns="http://www.w3.org/2000/svg">
<path d="M12.0077 20.3533L4.21804 11.566L3.10225 9.96359C2.8245 9.47209 2.63887 8.97063 2.53906 8.4567C2.46068 7.98743 2.49862 7.50705 2.66808 7.0013C2.80949 6.57926 3.14613 6.0882 3.79262 5.54457C4.21977 5.21132 4.72378 4.93607 5.3141 4.72465C5.89122 4.51796 6.49166 4.41406 7.12081 4.41406C7.74996 4.41406 8.3504 4.51796 8.92752 4.72465C9.51845 4.93628 10.0229 5.21188 10.4503 5.54558L11.3252 6.27425L11.9727 6.8136L12.614 6.26678L13.445 5.55816C13.9361 5.21395 14.4749 4.93586 15.0646 4.72465C15.6397 4.51867 16.2469 4.41406 16.892 4.41406C17.5211 4.41406 18.1124 4.51795 18.672 4.72245L18.672 4.72247L18.678 4.72465C19.2709 4.93697 19.7861 5.21463 20.2311 5.55326C20.665 5.90716 20.974 6.30577 21.1782 6.74985L22.0867 6.33203L21.1782 6.74986C21.3929 7.21679 21.499 7.70124 21.499 8.21289V8.22336L21.4992 8.23383C21.5098 8.73927 21.4104 9.2651 21.1826 9.8187L21.1781 9.8296L21.1739 9.8406C20.9604 10.3963 20.637 10.9306 20.1912 11.4436C19.5707 12.1023 18.7952 12.9392 17.8658 13.9532C16.9311 14.9729 16.0239 15.9633 15.1442 16.9244C14.2646 17.8855 13.5086 18.7118 12.8763 19.4033L12.0077 20.3533ZM11.7227 20.7834C11.723 20.7827 11.7232 20.782 11.7234 20.7813L11.7227 20.7834Z" stroke="#fff" stroke-width="2"/>
</svg>
