<svg width="24" height="25" viewBox="0 0 24 25" fill="none" xmlns="http://www.w3.org/2000/svg">
<g clip-path="url(#clip0)">
<path d="M10.8016 7.71366H18.4786C19.7735 7.71366 20.6985 8.83251 20.421 10.0531L19.1261 15.6473C18.9411 16.461 18.1086 17.0713 17.1837 17.0713H10.8016C9.87668 17.0713 9.13673 16.461 8.95175 15.6473L5.66169 3.33911H3.18748" stroke="#20202A" stroke-width="2" stroke-miterlimit="10" stroke-linecap="round" stroke-linejoin="round"/>
<path d="M9.92383 22.614C10.7523 22.614 11.4238 21.9424 11.4238 21.114C11.4238 20.2856 10.7523 19.614 9.92383 19.614C9.0954 19.614 8.42383 20.2856 8.42383 21.114C8.42383 21.9424 9.0954 22.614 9.92383 22.614Z" fill="#20202A"/>
<path d="M17.9129 22.614C18.7451 22.614 19.4196 21.9424 19.4196 21.114C19.4196 20.2856 18.7451 19.614 17.9129 19.614C17.0808 19.614 16.4062 20.2856 16.4062 21.114C16.4062 21.9424 17.0808 22.614 17.9129 22.614Z" fill="#20202A"/>
</g>
<defs>
<clipPath id="clip0">
<rect width="22.5" height="21" fill="white" transform="translate(0 2.28906)"/>
</clipPath>
</defs>
</svg>
