<svg width="18" height="18" viewBox="0 0 18 18" fill="none" xmlns="http://www.w3.org/2000/svg">
<path d="M15.125 7.5C15.125 9.87379 13.5839 12.1589 11.9213 13.9139C11.1027 14.7779 10.2821 15.4848 9.66536 15.9759C9.39893 16.1881 9.1715 16.3592 9 16.4846C8.8285 16.3592 8.60107 16.1881 8.33464 15.9759C7.71792 15.4848 6.89726 14.7779 6.07872 13.9139C4.41609 12.1589 2.875 9.87379 2.875 7.5C2.875 5.87555 3.52031 4.31763 4.66897 3.16897C5.81763 2.02031 7.37555 1.375 9 1.375C10.6245 1.375 12.1824 2.02031 13.331 3.16897C14.4797 4.31763 15.125 5.87555 15.125 7.5Z" stroke="#005AF0" stroke-width="1.25" stroke-linecap="round" stroke-linejoin="round"/>
<path d="M10.625 7.5C10.625 8.39746 9.89746 9.125 9 9.125C8.10254 9.125 7.375 8.39746 7.375 7.5C7.375 6.60254 8.10254 5.875 9 5.875C9.89746 5.875 10.625 6.60254 10.625 7.5Z" stroke="#005AF0" stroke-width="1.25" stroke-linecap="round" stroke-linejoin="round"/>
</svg>
