<svg width="16" height="16" viewBox="0 0 16 16" fill="none" xmlns="http://www.w3.org/2000/svg">
<path d="M6.35303 11.8503C6.35303 12.5412 7.1984 13.306 7.99982 13.306C8.8407 13.306 9.66648 12.6 9.66648 11.8503" stroke="#005AF0" stroke-width="1.25" stroke-miterlimit="10" stroke-linecap="round" stroke-linejoin="round"/>
<path d="M2.26465 11.8235H13.7352" stroke="#005AF0" stroke-width="1.25" stroke-miterlimit="10" stroke-linecap="round" stroke-linejoin="round"/>
<path d="M2.26465 11.8235C2.26465 11.8235 4.71171 11.7471 4.71171 9.37646L4.63524 6.24117C4.63524 4.40588 6.16465 2.87646 7.99994 2.87646" stroke="#005AF0" stroke-width="1.25" stroke-miterlimit="10" stroke-linecap="round" stroke-linejoin="round"/>
<path d="M13.7353 11.8235C13.7353 11.8235 11.2882 11.7471 11.2882 9.37646L11.3647 6.24117C11.3647 4.40588 9.83529 2.87646 8 2.87646" stroke="#005AF0" stroke-width="1.25" stroke-miterlimit="10" stroke-linecap="round" stroke-linejoin="round"/>
<path d="M6.85303 2.62313C6.85303 2.01137 7.38832 1.47607 8.00009 1.47607C8.61185 1.47607 9.14715 2.01137 9.14715 2.62313C9.14715 3.2349 8.68832 2.54666 8.07656 2.54666C7.38832 2.54666 6.85303 3.2349 6.85303 2.62313Z" fill="#005AF0"/>
</svg>
