<svg width="33" height="21" viewBox="0 0 33 21" fill="none" xmlns="http://www.w3.org/2000/svg">
<path d="M16.1929 3.10254C15.0035 4.03751 14.0419 5.23036 13.3807 6.59113C12.7195 7.9519 12.376 9.44504 12.376 10.9579C12.376 12.4708 12.7195 13.964 13.3807 15.3247C14.0419 16.6855 15.0035 17.8784 16.1929 18.8133C16.4366 18.5859 16.1929 18.5046 16.1929 18.8133C17.3823 17.8784 18.3439 16.6855 19.005 15.3247C19.6662 13.964 20.0098 12.4708 20.0098 10.9579C20.0098 9.44504 19.6662 7.9519 19.005 6.59113C18.3439 5.23036 17.3823 4.03751 16.1929 3.10254Z" fill="#FF5F00"/>
<path d="M12.3913 10.9495C12.3927 9.4379 12.737 7.9463 13.3984 6.58703C14.0597 5.22776 15.0208 4.03625 16.2094 3.10225C16.0593 2.97412 15.902 2.85477 15.7382 2.74481C14.4494 1.8446 12.9667 1.26064 11.4102 1.04025C9.85372 0.819857 8.26718 0.969233 6.77916 1.47627C5.29113 1.98331 3.94349 2.83375 2.84539 3.95869C1.7473 5.08363 0.92965 6.45143 0.458694 7.95126C-0.0122614 9.4511 -0.123277 11.0408 0.13464 12.5915C0.392557 14.1423 1.01215 15.6104 1.94323 16.8771C2.8743 18.1437 4.09066 19.1732 5.49377 19.8822C6.89687 20.5911 8.44725 20.9596 10.0193 20.9576C12.0659 20.9604 14.0634 20.3305 15.7382 19.1542C15.9054 19.0553 16.0632 18.9411 16.2094 18.813C15.0178 17.8782 14.0547 16.6842 13.3932 15.3218C12.7317 13.9593 12.389 12.4641 12.3913 10.9495Z" fill="#E40520"/>
<path d="M22.4157 0.957833C20.4388 0.939889 18.5005 1.505 16.843 2.58253L16.2256 3.03744C17.415 3.97241 18.3766 5.16527 19.0378 6.52603C19.6989 7.8868 20.0425 9.37995 20.0425 10.8928C20.0425 12.4057 19.6989 13.8989 19.0378 15.2597C18.3766 16.6204 17.415 17.8133 16.2256 18.7482L16.8592 19.2032C18.1552 20.0972 19.6438 20.6729 21.204 20.8834C22.7643 21.0939 24.3522 20.9334 25.8388 20.4148C27.3253 19.8962 28.6686 19.0343 29.7593 17.8989C30.8501 16.7636 31.6577 15.3869 32.1163 13.8808C32.575 12.3747 32.6719 10.7816 32.3991 9.23104C32.1263 7.68045 31.4915 6.21609 30.5463 4.95695C29.6012 3.69782 28.3723 2.67943 26.9595 1.98456C25.5467 1.28968 23.99 0.937908 22.4157 0.957833Z" fill="#FAB31E"/>
</svg>
