<svg width="54" height="16" viewBox="0 0 54 16" fill="none" xmlns="http://www.w3.org/2000/svg">
<path d="M14.7506 0.508789C14.1662 0.514817 13.599 0.707144 13.1315 1.05779C12.664 1.40844 12.3205 1.89911 12.1511 2.45842C11.6475 4.26184 10.234 9.21716 10.1852 9.36338H9.79531C9.79531 9.36338 8.34932 4.27808 7.84567 2.45842C7.67625 1.89911 7.3328 1.40844 6.86527 1.05779C6.39774 0.707144 5.83053 0.514817 5.24615 0.508789H0.550781V15.4072H5.24615V6.55266H5.63608L8.36557 15.4072H11.615L14.3607 6.5689H14.7506V15.4072H19.4298V0.508789H14.7506Z" fill="#4DB45F"/>
<path d="M31.8751 0.508789C31.426 0.578482 31.0033 0.765388 30.6496 1.05064C30.2959 1.3359 30.0237 1.70941 29.8604 2.13348L26.611 9.42837H26.2211V0.508789H21.542V15.4072H25.9612C26.4185 15.3388 26.8503 15.1532 27.2147 14.8685C27.5791 14.5838 27.8637 14.2097 28.0408 13.7825L31.2902 6.48767H31.6801V15.3423H36.3592V0.508789H31.8751Z" fill="#4DB45F"/>
<path d="M38.3896 7.26758V15.3911H43.1338V10.6632H48.2191C49.2493 10.6383 50.2475 10.3 51.0806 9.69329C51.9137 9.08663 52.542 8.24046 52.8819 7.26758H38.3896Z" fill="#4DB45F"/>
<path d="M48.1542 0.508754H37.7236C37.9819 1.89471 38.627 3.17933 39.5843 4.21428C40.5417 5.24923 41.7722 5.99229 43.1339 6.35766C43.7684 6.53497 44.4247 6.62247 45.0835 6.61761H53.207C53.2723 6.27488 53.305 5.92671 53.3045 5.5778C53.3067 4.90461 53.1745 4.23775 52.9155 3.61638C52.6564 2.99502 52.2758 2.43168 51.7961 1.95946C51.3163 1.48723 50.7469 1.11565 50.1215 0.866524C49.4961 0.617401 48.8272 0.495762 48.1542 0.508754Z" fill="#23A0FB"/>
</svg>
