<svg width="51" height="16" viewBox="0 0 51 16" fill="none" xmlns="http://www.w3.org/2000/svg">
<path fill-rule="evenodd" clip-rule="evenodd" d="M10.5118 11.0076L14.5411 0.885742H18.8465L12.3477 15.6542H8.13977L4.20801 1.69809H7.68486L9.52076 6.57218L10.5118 11.0076Z" fill="#2C92FF"/>
<path fill-rule="evenodd" clip-rule="evenodd" d="M20.5848 0.885742H24.744L22.1283 15.703H18.0503L20.5848 0.885742Z" fill="#2C92FF"/>
<path fill-rule="evenodd" clip-rule="evenodd" d="M36.4907 4.50887L37.1081 1.34071C37.1081 1.34071 30.9017 -0.836379 27.5386 2.77044C24.1755 6.37727 28.5297 8.8468 29.0658 9.09051C29.602 9.33421 32.5102 10.1791 32.0715 11.7388C31.6329 13.2985 27.8798 12.9085 26.3038 12.2587L25.264 11.82L24.7441 15.0694C27.2636 15.9629 29.9961 16.065 32.5752 15.3618C36.312 14.257 36.377 11.755 36.4257 11.0076C36.4744 10.2603 36.182 8.21317 33.0463 6.92966C29.9107 5.64615 30.0569 4.05395 32.8026 3.76151C35.5484 3.46906 36.4907 4.50887 36.4907 4.50887Z" fill="#2C92FF"/>
<path fill-rule="evenodd" clip-rule="evenodd" d="M47.6362 0.886353H44.5656C44.0295 0.815813 43.4859 0.941391 43.0351 1.23995C42.5843 1.53851 42.2565 1.98993 42.1123 2.51105L36.1821 15.6711H40.5363L41.3812 13.4452H46.7751L47.2301 15.6711H50.9994L47.6362 0.886353ZM42.4859 10.4558L44.728 4.96434L46.0278 10.4558H42.4859Z" fill="#2C92FF"/>
<path fill-rule="evenodd" clip-rule="evenodd" d="M0 0.0898438V0.398536C1.76543 0.746242 3.45456 1.40649 4.98781 2.34817C6.35744 3.20528 7.55798 4.30668 8.52965 5.59756C9.07688 6.33202 9.51469 7.14197 9.82941 8.00211L8.44841 1.50333C8.33111 1.09209 8.07742 0.732966 7.72903 0.484959C7.38064 0.236953 6.95826 0.114807 6.53128 0.138585C4.93907 0.106091 0 0.0898438 0 0.0898438Z" fill="#FEAD33"/>
</svg>
