<svg width="16" height="17" viewBox="0 0 16 17" fill="none" xmlns="http://www.w3.org/2000/svg">
<path d="M7.54597 2.83092C7.72468 2.44348 8.27532 2.44348 8.45403 2.83092L9.85773 5.87415C9.93057 6.03205 10.0802 6.14077 10.2529 6.16124L13.5809 6.55584C14.0046 6.60607 14.1748 7.12977 13.8615 7.41945L11.401 9.69486C11.2734 9.81292 11.2162 9.98884 11.2501 10.1594L11.9032 13.4465C11.9864 13.865 11.5409 14.1886 11.1686 13.9802L8.24422 12.3433C8.09248 12.2584 7.90752 12.2584 7.75578 12.3433L4.8314 13.9802C4.45909 14.1886 4.01361 13.865 4.09676 13.4465L4.74991 10.1594C4.78379 9.98884 4.72664 9.81292 4.59897 9.69486L2.13846 7.41945C1.82521 7.12977 1.99537 6.60607 2.41906 6.55584L5.74711 6.16124C5.91979 6.14077 6.06943 6.03205 6.14227 5.87415L7.54597 2.83092Z" fill="#F2C94C"/>
</svg>
