<svg width="22" height="22" viewBox="0 0 22 22" fill="none" xmlns="http://www.w3.org/2000/svg">
<path d="M18.5148 6.96572C18.6254 6.61493 18.5148 6.34766 17.9877 6.34766H16.2701C15.828 6.34766 15.6324 6.57317 15.5219 6.82374C15.5219 6.82374 14.6461 8.92016 13.4047 10.2899C12.9966 10.6825 12.818 10.8078 12.597 10.8078C12.4864 10.8078 12.3079 10.6825 12.3079 10.3233V6.96572C12.3079 6.53976 12.2058 6.34766 11.8402 6.34766H9.12788C8.85579 6.34766 8.69424 6.54811 8.69424 6.74021C8.69424 7.14112 9.33194 7.24135 9.37446 8.38561V10.8746C9.37446 11.4258 9.27242 11.5261 9.05986 11.5261C8.48168 11.5261 7.05323 9.41294 6.21147 7.00749C6.04141 6.53976 5.87986 6.34766 5.43772 6.34766H3.71168C3.22703 6.34766 3.125 6.57317 3.125 6.82374C3.125 7.27476 3.71168 9.49646 5.84585 12.4365C7.2658 14.4494 9.27242 15.5352 11.1005 15.5352C12.1973 15.5352 12.3334 15.2929 12.3334 14.8753V13.3552C12.3334 12.8791 12.4354 12.7789 12.784 12.7789C13.0391 12.7789 13.4727 12.9042 14.4931 13.8647C15.6664 15.0173 15.8535 15.5352 16.5167 15.5352H18.2342C18.7274 15.5352 18.974 15.2929 18.8379 14.8169C18.6849 14.3408 18.1237 13.6475 17.384 12.829C16.9843 12.3696 16.3806 11.8685 16.1936 11.6096C15.9385 11.2922 16.015 11.1502 16.1936 10.8579C16.1936 10.8579 18.2937 7.95964 18.5148 6.96572Z" fill="white"/>
</svg>
