<svg width="36" height="36" viewBox="0 0 36 36" fill="none" xmlns="http://www.w3.org/2000/svg">
<path fill-rule="evenodd" clip-rule="evenodd" d="M18 36C27.9411 36 36 27.9411 36 18C36 8.05887 27.9411 0 18 0C8.05887 0 0 8.05887 0 18C0 27.9411 8.05887 36 18 36Z" fill="#54769C"/>
<path fill-rule="evenodd" clip-rule="evenodd" d="M26.488 13.7377C26.636 14.1207 26.179 15.0137 25.115 16.4187C24.967 16.6097 24.775 16.8647 24.541 17.1837C24.051 17.7797 23.776 18.1737 23.712 18.3647C23.605 18.6207 23.648 18.8647 23.839 19.0987C23.946 19.2257 24.19 19.4817 24.573 19.8647H24.605V19.8967C25.477 20.6837 26.062 21.3537 26.36 21.9067C26.381 21.9497 26.403 21.9927 26.424 22.0347C26.445 22.0777 26.467 22.1567 26.488 22.2737C26.509 22.3907 26.509 22.4927 26.488 22.5777C26.467 22.6627 26.392 22.7427 26.264 22.8167C26.137 22.8907 25.956 22.9277 25.722 22.9277L23.392 22.9917C23.243 23.0127 23.068 22.9917 22.866 22.9277C22.663 22.8647 22.509 22.8007 22.403 22.7367L22.212 22.6087C22.02 22.4817 21.807 22.2907 21.573 22.0347C21.339 21.7797 21.132 21.5457 20.951 21.3327C20.77 21.1197 20.584 20.9447 20.393 20.8057C20.201 20.6677 20.03 20.6197 19.882 20.6627C19.861 20.6627 19.834 20.6737 19.802 20.6947C19.77 20.7157 19.717 20.7627 19.643 20.8387C19.568 20.9127 19.504 21.0037 19.451 21.1087C19.398 21.2157 19.35 21.3697 19.308 21.5717C19.264 21.7737 19.244 22.0127 19.244 22.2907C19.244 22.3757 19.233 22.4547 19.212 22.5297C19.191 22.6037 19.169 22.6627 19.148 22.7047L19.116 22.7367C18.988 22.8647 18.818 22.9277 18.606 22.9277H17.584C17.138 22.9707 16.685 22.9277 16.228 22.8007C15.77 22.6737 15.371 22.5087 15.031 22.3057C14.691 22.1037 14.382 21.9017 14.106 21.6997C13.829 21.4977 13.616 21.3217 13.467 21.1737L13.244 20.9497C13.18 20.9067 13.095 20.8217 12.989 20.6947C12.882 20.5667 12.665 20.2907 12.335 19.8647C12.005 19.4387 11.681 18.9817 11.362 18.4927C11.042 18.0037 10.67 17.3597 10.245 16.5617C9.819 15.7637 9.426 14.9397 9.064 14.0887C9.021 13.9817 9 13.8967 9 13.8337C9 13.7687 9.01 13.7167 9.032 13.6737L9.064 13.6417C9.149 13.5137 9.319 13.4507 9.574 13.4507H12.095C12.159 13.4507 12.223 13.4667 12.287 13.4987C12.351 13.5297 12.404 13.5567 12.446 13.5777L12.479 13.6097C12.585 13.6737 12.659 13.7687 12.702 13.8967C12.829 14.1947 12.973 14.5087 13.133 14.8387C13.292 15.1687 13.414 15.4187 13.5 15.5887L13.627 15.8437C13.819 16.2057 13.994 16.5187 14.154 16.7857C14.314 17.0507 14.457 17.2587 14.585 17.4077C14.712 17.5557 14.84 17.6737 14.967 17.7587C15.095 17.8427 15.202 17.8857 15.287 17.8857C15.371 17.8857 15.457 17.8757 15.542 17.8537C15.585 17.7907 15.633 17.7057 15.686 17.5987C15.738 17.4927 15.781 17.3537 15.813 17.1837C15.845 17.0137 15.872 16.7687 15.893 16.4507C15.914 16.1317 15.914 15.7487 15.893 15.3007C15.872 15.0667 15.84 14.8487 15.797 14.6467C15.755 14.4447 15.712 14.3007 15.67 14.2167L15.638 14.1207C15.489 13.9077 15.223 13.7687 14.84 13.7057C14.776 13.7057 14.797 13.6317 14.904 13.4817C15.01 13.3757 15.127 13.2907 15.255 13.2267C15.574 13.0567 16.297 12.9817 17.425 13.0037C17.914 13.0037 18.329 13.0467 18.67 13.1317C18.776 13.1527 18.871 13.1897 18.957 13.2427C19.041 13.2967 19.105 13.3707 19.148 13.4667C19.191 13.5617 19.222 13.6577 19.244 13.7537C19.264 13.8487 19.276 13.9877 19.276 14.1687V14.6627C19.255 14.8337 19.244 15.0467 19.244 15.3007V16.0667C19.244 16.1317 19.238 16.2587 19.228 16.4507C19.217 16.6417 19.212 16.7907 19.212 16.8967C19.212 17.0037 19.222 17.1257 19.244 17.2637C19.264 17.4017 19.302 17.5187 19.356 17.6147C19.408 17.7107 19.478 17.7797 19.563 17.8227C19.606 17.8427 19.654 17.8597 19.707 17.8707C19.759 17.8807 19.839 17.8487 19.946 17.7747C20.052 17.6997 20.169 17.5927 20.297 17.4557C20.425 17.3167 20.584 17.1097 20.776 16.8337C20.967 16.5557 21.169 16.2377 21.382 15.8757C21.743 15.2377 22.073 14.5467 22.371 13.8007C22.392 13.7587 22.419 13.7117 22.451 13.6577C22.483 13.6047 22.52 13.5677 22.563 13.5467H22.594L22.627 13.5137L22.754 13.4817H22.946L25.562 13.4507C25.797 13.4287 25.993 13.4397 26.153 13.4817C26.312 13.5247 26.403 13.5777 26.424 13.6417L26.488 13.7377Z" fill="white"/>
</svg>
