<svg width="36" height="36" viewBox="0 0 36 36" fill="none" xmlns="http://www.w3.org/2000/svg">
<path fill-rule="evenodd" clip-rule="evenodd" d="M18 36C27.9411 36 36 27.9411 36 18C36 8.05887 27.9411 0 18 0C8.05887 0 0 8.05887 0 18C0 27.9411 8.05887 36 18 36Z" fill="#004899"/>
<path fill-rule="evenodd" clip-rule="evenodd" d="M19.098 25.977H16.321V19.157H14V16.485H16.321V14.516C16.321 13.391 16.637 12.524 17.27 11.914C17.903 11.305 18.746 11 19.801 11C20.645 11 21.336 11.036 21.875 11.106V13.461L20.434 13.497C19.918 13.497 19.567 13.602 19.379 13.813C19.191 14.024 19.098 14.34 19.098 14.762V16.485H21.77L21.418 19.157H19.098V25.977Z" fill="white"/>
</svg>
