<svg width="36" height="36" viewBox="0 0 36 36" fill="none" xmlns="http://www.w3.org/2000/svg">
<path d="M18 0C8.1 0 0 8.1 0 18C0 27.9 8.1 36 18 36C27.9 36 36 27.9 36 18C36 8.1 27.9 0 18 0ZM20.3 20.2C20 21.2 19.4 22.1 18.7 22.8C18 23.4 17.1 23.9 16.1 24.1C15 24.3 13.9 24.3 12.8 24.1C12 23.9 11.2 23.5 10.5 22.9C9.8 22.3 9.2 21.6 8.8 20.8C8.1 19.5 7.9 18.1 8.2 16.7C8.3 16.1 8.5 15.6 8.8 15.1C9.5 13.6 10.8 12.5 12.4 12C13.8 11.5 15.3 11.5 16.7 12C17.4 12.3 18.1 12.7 18.8 13.3C18.7 13.4 18.6 13.5 18.5 13.6C18.3 13.7 18.2 13.8 18.2 13.9C18.1 14 17.9 14.2 17.6 14.4C17.3 14.7 17.1 14.9 17 15C16.6 14.6 16.1 14.3 15.6 14.2C15 14 14.4 14 13.7 14.2C13 14.4 12.3 14.7 11.8 15.2C11.4 15.6 11.1 16.1 10.9 16.7C10.6 17.5 10.6 18.3 10.9 19.2C11.2 20 11.7 20.7 12.4 21.1C12.8 21.4 13.3 21.6 13.8 21.7C14.3 21.8 14.8 21.8 15.3 21.7C15.8 21.6 16.3 21.4 16.7 21.1C17.4 20.6 17.8 20 18 19.2C16.8 19.2 15.7 19.2 14.5 19.2C14.5 19 14.5 18.6 14.5 18C14.5 17.4 14.5 17 14.5 16.8C17.8 16.8 19.8 16.8 20.5 16.8C20.6 18 20.6 19.1 20.3 20.2ZM28 18.6H25.8V20.7H24.2V18.6H22V17H24.2V14.8H25.8V17H28V18.6Z" fill="#EB5757"/>
</svg>
