<svg width="27" height="21" viewBox="0 0 27 21" fill="none" xmlns="http://www.w3.org/2000/svg">
<path d="M3.69362 0.745892C3.3122 0.343276 2.83541 0.141968 2.26328 0.141968C1.69114 0.141968 1.20376 0.343276 0.801143 0.745892C0.419717 1.12732 0.229004 1.6041 0.229004 2.17624C0.229004 2.74838 0.419717 3.23576 0.801143 3.63837C1.20376 4.0198 1.69114 4.21051 2.26328 4.21051C2.83541 4.21051 3.3122 4.0198 3.69362 3.63837C4.09624 3.23576 4.29755 2.74838 4.29755 2.17624C4.29755 1.6041 4.09624 1.12732 3.69362 0.745892Z" fill="#20202A"/>
<path d="M25.6574 3.19333C26.2191 3.19333 26.6745 2.73794 26.6745 2.17619C26.6745 1.61444 26.2191 1.15906 25.6574 1.15906H16.5031H7.34892C6.78717 1.15906 6.33179 1.61444 6.33179 2.17619C6.33179 2.73794 6.78717 3.19333 7.34892 3.19333H25.6574Z" fill="#20202A"/>
<path d="M3.69362 8.88322C3.3122 8.4806 2.83541 8.2793 2.26328 8.2793C1.69114 8.2793 1.20376 8.4806 0.801143 8.88322C0.419717 9.26465 0.229004 9.74143 0.229004 10.3136C0.229004 10.8857 0.419717 11.3731 0.801143 11.7757C1.20376 12.1571 1.69114 12.3478 2.26328 12.3478C2.83541 12.3478 3.3122 12.1571 3.69362 11.7757C4.09624 11.3731 4.29755 10.8857 4.29755 10.3136C4.29755 9.74143 4.09624 9.26465 3.69362 8.88322Z" fill="#20202A"/>
<path d="M25.6574 11.3307C26.2191 11.3307 26.6745 10.8753 26.6745 10.3135C26.6745 9.75177 26.2191 9.29639 25.6574 9.29639H16.5031H7.34892C6.78717 9.29639 6.33179 9.75177 6.33179 10.3135C6.33179 10.8753 6.78717 11.3307 7.34892 11.3307H25.6574Z" fill="#20202A"/>
<path d="M3.69362 17.092C3.3122 16.6893 2.83541 16.488 2.26328 16.488C1.69114 16.488 1.20376 16.6893 0.801143 17.092C0.419717 17.4734 0.229004 17.9502 0.229004 18.5223C0.229004 19.0944 0.419717 19.5818 0.801143 19.9844C1.20376 20.3659 1.69114 20.5566 2.26328 20.5566C2.83541 20.5566 3.3122 20.3659 3.69362 19.9844C4.09624 19.5818 4.29755 19.0944 4.29755 18.5223C4.29755 17.9502 4.09624 17.4734 3.69362 17.092Z" fill="#20202A"/>
<path d="M25.6574 19.5394C26.2191 19.5394 26.6745 19.084 26.6745 18.5223C26.6745 17.9605 26.2191 17.5051 25.6574 17.5051H16.5031H7.34892C6.78717 17.5051 6.33179 17.9605 6.33179 18.5223C6.33179 19.084 6.78717 19.5394 7.34892 19.5394H25.6574Z" fill="#20202A"/>
</svg>
