<svg width="70" height="10" viewBox="0 0 70 10" fill="none" xmlns="http://www.w3.org/2000/svg">
<path fill-rule="evenodd" clip-rule="evenodd" d="M45.2738 2.64905V5.41667H41.3718V2.60951C41.3718 1.8583 41.9691 1.542 42.208 1.542H44.2386C44.7164 1.542 45.2738 1.97691 45.2738 2.64905ZM62.6738 1.50248H64.0674C64.6248 1.50248 65.1026 1.93739 65.1026 2.49092V6.56328C65.1026 7.1168 64.6646 7.55171 64.1072 7.55171H62.7136C62.1562 7.55171 61.7182 7.1168 61.7182 6.56328V2.49092C61.6784 1.93739 62.1164 1.50248 62.6738 1.50248ZM38.8236 2.45137V8.97506H41.2922V7.03772H45.2341V8.97506H47.7823V2.53045C47.7425 0.909412 46.8267 0.0395878 45.5128 0.0395878H40.8144C39.5005 5.03454e-05 38.8236 1.14664 38.8236 2.45137ZM67.6508 6.87952V2.09549C67.6508 0.948899 66.6952 0 65.5406 0H61.2802C60.1255 0 59.1699 0.948899 59.1699 2.09549V6.87952C59.1699 8.0261 60.1255 8.975 61.2802 8.975H65.5406C66.6952 8.975 67.6508 8.0261 67.6508 6.87952ZM1.95329 5.41663C1.95329 5.41663 2.03292 5.41663 2.07274 5.41663H5.45715C6.01459 5.41663 6.33312 5.85154 6.41276 6.28646C6.53221 6.87952 6.17386 7.43304 5.41734 7.43304H0.280985V8.93547H5.5766C6.0544 8.93547 6.53221 8.93547 6.77111 8.93547C6.93037 8.93547 7.28872 8.85639 7.48781 8.73778C8.32396 8.3424 8.64249 7.47258 8.68231 6.68183C8.68231 6.40507 8.68231 6.20738 8.68231 5.93062C8.64249 4.1119 8.12487 3.40022 6.17385 3.40022H3.22742C2.51072 3.43976 2.35145 2.8467 2.35145 2.37225C2.39127 1.42335 3.14779 1.54196 3.98394 1.54196H8.44341V0H1.91347C1.7542 0 1.43567 0.0790749 1.2764 0.118612C0.400435 0.434912 0.0420852 1.42335 0.00226848 2.5304C-0.0375482 3.87467 0.440252 5.37709 1.95329 5.41663ZM55.1882 3.04438V9.01454H57.7364V2.49086C57.7364 0.948899 56.8605 0 55.2678 0H49.2555V8.975H51.7241V1.50242H54.1131C54.9891 1.50242 55.1882 2.33271 55.1882 3.04438ZM33.6474 1.46287C34.2048 1.54194 34.8021 1.62102 34.8021 2.72807V8.97499H37.3105V2.84668C37.2707 1.54194 37.3504 0.118595 35.2401 0.0395203H25.6044V9.01452H28.1129V1.50241H30.2232V9.01452H32.652V1.50241H33.6474V1.46287ZM20.9459 0V8.975H23.5738V0H20.9459ZM12.7037 0H10.2351V8.975H12.7037V6.95859H16.4465V8.93547H18.9151V0H16.4465V5.29802H12.7037V0Z" fill="#0066B3"/>
<path fill-rule="evenodd" clip-rule="evenodd" d="M69.124 1.77921C68.7258 1.77921 68.3675 1.46291 68.3675 1.028C68.3675 0.632621 68.7258 0.276784 69.124 0.276784C69.5222 0.276784 69.8805 0.593084 69.8805 1.028C69.8805 1.46291 69.5222 1.77921 69.124 1.77921ZM68.885 0.988402V0.71164H69.1637C69.2832 0.71164 69.323 0.790715 69.323 0.830252C69.323 0.948865 69.2832 0.988402 69.1637 0.988402H68.885ZM69.124 1.89785C69.6018 1.89785 70 1.50248 70 1.02803C70 0.553578 69.6018 0.158203 69.124 0.158203C68.6462 0.158203 68.248 0.553578 68.248 1.02803C68.248 1.54201 68.6462 1.89785 69.124 1.89785ZM68.6859 1.5814H68.885V1.18603H69.1239C69.2832 1.18603 69.2832 1.22556 69.2832 1.38371C69.2832 1.50233 69.2832 1.54186 69.323 1.5814H69.5619V1.54186C69.5221 1.54186 69.5221 1.50233 69.5221 1.34418C69.5221 1.14649 69.4823 1.10695 69.4026 1.06741C69.5221 1.02788 69.5619 0.948801 69.5619 0.830188C69.5619 0.751113 69.5221 0.553426 69.2434 0.553426H68.7258V1.5814H68.6859Z" fill="#0066B3"/>
</svg>
