<svg width="70" height="11" viewBox="0 0 70 11" fill="none" xmlns="http://www.w3.org/2000/svg">
<path fill-rule="evenodd" clip-rule="evenodd" d="M0 0H10.2608L8.43497 2.56861H1.77443L0 0Z" fill="black"/>
<path fill-rule="evenodd" clip-rule="evenodd" d="M12.5495 0.36322L10.9808 2.5686L12.7553 5.1891L10.9294 7.75772L7.43198 7.78366L5.63184 10.2485H12.2924L15.867 5.1891L12.5495 0.36322Z" fill="black"/>
<path fill-rule="evenodd" clip-rule="evenodd" d="M3.54886 5.18909H6.50625H6.76341L3.11168 10.2485H0L3.54886 5.18909Z" fill="black"/>
<path fill-rule="evenodd" clip-rule="evenodd" d="M14.7356 0.0518799H17.8987L21.4476 5.18911L17.8987 10.3523H14.787L18.3616 5.18911L14.7356 0.0518799Z" fill="black"/>
<path fill-rule="evenodd" clip-rule="evenodd" d="M28.1593 0L21.0359 10.2485H24.0961L29.7023 2.30916L28.1593 0Z" fill="black"/>
<path fill-rule="evenodd" clip-rule="evenodd" d="M30.911 4.09949L28.4165 7.70592H30.3967L32.1711 10.3005H35.2828L30.911 4.09949Z" fill="black"/>
<path fill-rule="evenodd" clip-rule="evenodd" d="M31.2712 0H34.3572L41.4806 10.2485H38.3947L31.2712 0Z" fill="black"/>
<path fill-rule="evenodd" clip-rule="evenodd" d="M37.4688 0H40.6319L43.3578 3.99562L41.7891 6.25289L37.4688 0Z" fill="black"/>
<path fill-rule="evenodd" clip-rule="evenodd" d="M48.6041 0.0518799L43.0493 8.04312L44.6437 10.3004L48.6041 4.46263L49.8642 6.20099L51.4071 4.0475L48.6041 0.0518799Z" fill="black"/>
<path fill-rule="evenodd" clip-rule="evenodd" d="M59.842 0H56.6789L51.1499 8.09503L52.6672 10.3004L59.842 0Z" fill="black"/>
<path fill-rule="evenodd" clip-rule="evenodd" d="M62.928 0.0518799L55.7788 10.2485H58.8648L64.4709 2.25726L62.928 0.0518799Z" fill="black"/>
<path fill-rule="evenodd" clip-rule="evenodd" d="M65.6795 4.04742L63.1851 7.75764H65.1138L66.9654 10.3003H69.9999L65.6795 4.04742Z" fill="black"/>
</svg>
