<svg width="72" height="26" viewBox="0 0 72 26" fill="none" xmlns="http://www.w3.org/2000/svg">
<path fill-rule="evenodd" clip-rule="evenodd" d="M71 14.8068C71 20.2878 55.3301 24.7308 36 24.7308C16.67 24.7308 1 20.2878 1 14.8068C1 9.32596 16.67 4.88269 36 4.88269C55.3301 4.88269 71 9.32596 71 14.8068Z" fill="#20202A"/>
<path fill-rule="evenodd" clip-rule="evenodd" d="M71 14.8068C71 20.2878 55.3301 24.7308 36 24.7308C16.67 24.7308 1 20.2878 1 14.8068C1 9.32596 16.67 4.88269 36 4.88269C55.3301 4.88269 71 9.32596 71 14.8068Z" stroke="#20202A" stroke-width="1.6548"/>
<path fill-rule="evenodd" clip-rule="evenodd" d="M13.0103 12.7475H15.7973C15.7973 12.7475 15.7142 9.42471 12.1453 9.43181C11.925 9.42471 8.58952 9.43181 8.10897 11.8698C8.10897 11.8698 7.24405 14.9905 11.2805 15.673C11.2805 15.673 13.7099 16.0399 13.2238 16.9594C12.827 17.5058 12.0898 17.6786 11.0976 17.3621C10.4012 17.1399 10.5115 16.0631 10.5115 16.0631H7.62833C7.62833 16.0631 7.43624 19.6711 12.0492 19.7687C12.0492 19.7687 15.7973 19.574 16.2779 16.7459C16.2779 16.7459 16.877 13.9801 13.8212 13.5335C13.8212 13.5335 10.3375 13.3043 10.8959 12.0648C11.1916 11.3782 13.0863 11.1301 13.0103 12.7475Z" fill="white"/>
<path fill-rule="evenodd" clip-rule="evenodd" d="M13.0103 12.7475H15.7973C15.7973 12.7475 15.7142 9.42471 12.1453 9.43181C11.925 9.42471 8.58952 9.43181 8.10897 11.8698C8.10897 11.8698 7.24405 14.9905 11.2805 15.673C11.2805 15.673 13.7099 16.0399 13.2238 16.9594C12.827 17.5058 12.0898 17.6786 11.0976 17.3621C10.4012 17.1399 10.5115 16.0631 10.5115 16.0631H7.62833C7.62833 16.0631 7.43624 19.6711 12.0492 19.7687C12.0492 19.7687 15.7973 19.574 16.2779 16.7459C16.2779 16.7459 16.877 13.9801 13.8212 13.5335C13.8212 13.5335 10.3375 13.3043 10.8959 12.0648C11.1916 11.3782 13.0863 11.1301 13.0103 12.7475Z" stroke="#20202A" stroke-width="1.7052"/>
<path fill-rule="evenodd" clip-rule="evenodd" d="M16.7395 9.84485V12.6578H19.41V19.7689H22.7163V12.5313H25.4187L25.4377 9.85247L16.7395 9.84485Z" fill="white"/>
<path fill-rule="evenodd" clip-rule="evenodd" d="M16.7395 9.84485V12.6578H19.41V19.7689H22.7163V12.5313H25.4187L25.4377 9.85247L16.7395 9.84485Z" stroke="#20202A" stroke-width="1.7052"/>
<path fill-rule="evenodd" clip-rule="evenodd" d="M25.4377 14.2016C25.4377 22.0088 32.6255 21.8317 34.7203 21.8317C36.815 21.8317 44.1966 22.2673 44.0753 14.7271C43.9455 6.66181 35.7256 7.38019 34.8901 7.38019C34.0546 7.38019 25.4377 7.25237 25.4377 14.2016Z" fill="white"/>
<path fill-rule="evenodd" clip-rule="evenodd" d="M25.4377 14.2016C25.4377 22.0088 32.6255 21.8317 34.7203 21.8317C36.815 21.8317 44.1966 22.2673 44.0753 14.7271C43.9455 6.66181 35.7256 7.38019 34.8901 7.38019C34.0546 7.38019 25.4377 7.25237 25.4377 14.2016Z" stroke="#20202A" stroke-width="1.7052"/>
<path fill-rule="evenodd" clip-rule="evenodd" d="M37.864 14.807C37.864 17.0906 36.3802 18.9419 34.5504 18.9419C32.7204 18.9419 31.2368 17.0906 31.2368 14.807C31.2368 12.5232 32.7204 10.6719 34.5504 10.6719C36.3802 10.6719 37.864 12.5232 37.864 14.807Z" fill="#20202A"/>
<path fill-rule="evenodd" clip-rule="evenodd" d="M37.864 14.807C37.864 17.0906 36.3802 18.9419 34.5504 18.9419C32.7204 18.9419 31.2368 17.0906 31.2368 14.807C31.2368 12.5232 32.7204 10.6719 34.5504 10.6719C36.3802 10.6719 37.864 12.5232 37.864 14.807Z" stroke="#20202A" stroke-width="1.7514"/>
<path fill-rule="evenodd" clip-rule="evenodd" d="M44.0769 9.87347V19.7689H47.287V16.2598H49.0033C50.1847 16.2598 50.1652 19.7584 50.1652 19.7584H53.1661C53.1661 19.7584 53.4801 15.2563 51.8001 15.1216C51.8001 15.1216 53.1668 14.857 53.1668 12.4444C53.1668 10.6731 51.7381 9.84485 50.4669 9.84485L44.0769 9.87347Z" fill="white"/>
<path fill-rule="evenodd" clip-rule="evenodd" d="M44.0769 9.87347V19.7689H47.287V16.2598H49.0033C50.1847 16.2598 50.1652 19.7584 50.1652 19.7584H53.1661C53.1661 19.7584 53.4801 15.2563 51.8001 15.1216C51.8001 15.1216 53.1668 14.857 53.1668 12.4444C53.1668 10.6731 51.7381 9.84485 50.4669 9.84485L44.0769 9.87347Z" stroke="#20202A" stroke-width="1.7514"/>
<path fill-rule="evenodd" clip-rule="evenodd" d="M47.3906 11.9316L47.4137 13.9799H49.4541C49.4541 13.9799 50.29 13.8184 50.29 13.0433C50.29 12.2681 49.4897 11.9124 49.4897 11.9124L47.3906 11.9316Z" fill="#20202A"/>
<path fill-rule="evenodd" clip-rule="evenodd" d="M47.3906 11.9316L47.4137 13.9799H49.4541C49.4541 13.9799 50.29 13.8184 50.29 13.0433C50.29 12.2681 49.4897 11.9124 49.4897 11.9124L47.3906 11.9316Z" stroke="#20202A" stroke-width="1.7514"/>
<path fill-rule="evenodd" clip-rule="evenodd" d="M54.4319 19.7689H57.3799V13.7762L58.9996 19.6422H61.494L63.0491 13.5861V19.6738H66.0295V9.87649H61.6561L60.3279 15.3935L58.7731 9.87649L54.4319 9.84485V19.7689Z" fill="white"/>
<path fill-rule="evenodd" clip-rule="evenodd" d="M54.4319 19.7689H57.3799V13.7762L58.9996 19.6422H61.494L63.0491 13.5861V19.6738H66.0295V9.87649H61.6561L60.3279 15.3935L58.7731 9.87649L54.4319 9.84485V19.7689Z" stroke="#20202A" stroke-width="1.7514"/>
<path fill-rule="evenodd" clip-rule="evenodd" d="M41.8724 0.747559H53.6037L43.6158 6.7879H46.9207L34.1362 14.8066L39.2575 8.9427H36.1702L41.2913 4.0327H38.7488L41.8724 0.747559Z" fill="#20202A"/>
<mask id="mask0" style="mask-type:alpha" maskUnits="userSpaceOnUse" x="34" y="0" width="20" height="15">
<path fill-rule="evenodd" clip-rule="evenodd" d="M34.1875 0H53.5357V14.3499H34.1875V0Z" fill="white"/>
</mask>
<g mask="url(#mask0)">
<path fill-rule="evenodd" clip-rule="evenodd" d="M41.8763 0H53.5357L43.609 6.16541H46.8937L34.1875 14.35L39.2774 8.3647H36.209L41.2987 3.35311H38.7719L41.8763 0Z" fill="#F3DA23"/>
</g>
</svg>
