<svg width="70" height="14" viewBox="0 0 70 14" fill="none" xmlns="http://www.w3.org/2000/svg">
<path fill-rule="evenodd" clip-rule="evenodd" d="M17.4034 13.7795H15.2376V11.0113H14.1548V13.7795H11.989V6.88977H14.1548V9.3504H15.2376V6.88977H17.4034V13.7795Z" fill="#343636"/>
<path fill-rule="evenodd" clip-rule="evenodd" d="M21.1679 6.95074H23.2044V11.7065C23.2044 12.1333 23.1407 12.4382 23.0135 12.682C22.8862 12.9259 22.6316 13.1698 22.3134 13.3527C21.8679 13.6576 21.3588 13.7795 20.786 13.7795C20.086 13.7795 19.5132 13.5966 19.0677 13.2918C18.495 12.9259 18.1768 12.2552 18.1768 11.4017V6.88977H20.2133V11.2797C20.2133 11.5846 20.2769 11.7675 20.3405 11.8894C20.4042 12.0114 20.5315 12.0723 20.7224 12.0723C20.9133 12.0723 21.0406 12.0114 21.1042 11.8894C21.1679 11.7675 21.2315 11.5846 21.2315 11.2797V6.95074" fill="#343636"/>
<path fill-rule="evenodd" clip-rule="evenodd" d="M30.9392 13.7795H28.959L28.7734 10.6422L28.7115 9.41192C28.7115 9.65798 28.6497 9.90404 28.6497 10.0886C28.6497 10.3347 28.5878 10.5192 28.5259 10.7037L27.9071 13.7795H26.2983L25.8032 10.7037C25.7414 10.5192 25.7414 10.2116 25.6795 9.78101C25.6795 9.71949 25.6795 9.59646 25.6176 9.3504L25.4938 10.6422L25.3082 13.7795H23.2043L24.0706 6.88977H26.4839L26.9171 9.22737C26.9789 9.41192 26.9789 9.59646 26.9789 9.84253C26.9789 10.0886 27.0408 10.3347 27.0408 10.5807C27.1027 10.1501 27.1646 9.78101 27.2264 9.41192L27.7215 6.88977H30.1966L30.9392 13.7795Z" fill="#343636"/>
<path fill-rule="evenodd" clip-rule="evenodd" d="M39.0607 13.7795H37.0806L36.8331 10.6422L36.7712 9.41192C36.7712 9.65798 36.7094 9.90404 36.7094 10.0886C36.7094 10.3347 36.6475 10.5192 36.5856 10.7037L35.9668 13.7795H34.358L33.8629 10.7037C33.8011 10.5192 33.8011 10.2116 33.7392 9.78101C33.7392 9.71949 33.7392 9.59646 33.6773 9.3504L33.6154 10.6422L33.4298 13.7795H31.3259L32.1922 6.88977H34.6055L35.0386 9.22737C35.1005 9.41192 35.1005 9.59646 35.1005 9.84253C35.1005 10.0886 35.1624 10.3347 35.1624 10.5807C35.2243 10.1501 35.2861 9.78101 35.348 9.41192L35.8431 6.88977H38.3182L39.0607 13.7795Z" fill="#343636"/>
<rect x="39.4475" y="6.88977" width="1.9337" height="6.88976" fill="#343636"/>
<path fill-rule="evenodd" clip-rule="evenodd" d="M42.1548 13.7186V6.88977H44.0885L45.1198 9.26765C45.1843 9.3896 45.2487 9.57251 45.3132 9.75542C45.3776 9.93834 45.4421 10.1213 45.571 10.3651L45.7644 10.9749C45.6999 10.3651 45.6354 9.87737 45.571 9.45057C45.5065 9.02377 45.5065 8.65794 45.5065 8.41405V6.88977H47.5691V13.7186H45.5065L44.4752 11.2187C44.3463 10.9749 44.2819 10.67 44.1529 10.4871C44.0885 10.2432 43.9596 9.99931 43.8951 9.8164C43.9596 10.3042 44.024 10.731 44.0885 11.0968C44.1529 11.4626 44.1529 11.7675 44.1529 12.0114V13.7795H42.1548" fill="#343636"/>
<path fill-rule="evenodd" clip-rule="evenodd" d="M48.3425 6.88977V13.7186V13.7795H51.372C52.081 13.7795 52.6611 13.5966 53.1123 13.2308C53.5635 12.865 53.7569 12.4382 53.7569 11.8285C53.7569 11.3407 53.628 10.9749 53.3702 10.731C53.1123 10.4871 52.7256 10.3042 52.1455 10.2432C53.1123 10.1822 53.628 9.69445 53.628 8.84085C53.628 8.29211 53.3702 7.80434 52.919 7.43851C52.4678 7.07268 51.7587 6.88977 50.8563 6.88977H48.3425ZM50.5986 9.51153C50.8564 9.51153 51.0498 9.45056 51.1787 9.32862C51.3076 9.20668 51.3721 9.08473 51.3721 8.90182C51.3721 8.53599 51.1142 8.29211 50.5986 8.29211H50.5341H50.4052V9.51153H50.4697H50.5986ZM50.4697 12.2553H50.5986H50.663C50.9209 12.2553 51.1142 12.1943 51.3076 12.0723C51.4365 11.9504 51.5654 11.7675 51.5654 11.5846C51.5654 11.4017 51.501 11.2187 51.3076 11.0968C51.1787 10.9749 50.9209 10.9139 50.663 10.9139H50.4697V12.2553Z" fill="#343636"/>
<rect x="54.1436" y="6.88977" width="1.9337" height="6.88976" fill="#343636"/>
<path fill-rule="evenodd" clip-rule="evenodd" d="M59.9065 13.7795H62.2652L60.6078 10.8883C61.4365 10.5807 61.8827 10.0271 61.8827 9.16585C61.8827 8.42766 61.564 7.81251 60.9265 7.3819C60.4165 7.07432 59.7153 6.88977 58.6953 6.88977H56.4641V13.718H58.6316V11.3189V10.8883C58.6559 10.9353 58.6803 10.9733 58.7011 11.0058C58.7347 11.0583 58.7591 11.0963 58.7591 11.1344C58.8228 11.1959 58.8228 11.2574 58.8228 11.3189L59.9065 13.7795ZM59.4603 9.71948C59.269 9.90403 59.0778 9.96555 58.8228 9.96555H58.6953V8.30462H58.759C59.3965 8.30462 59.7152 8.6122 59.7152 9.10433C59.7152 9.35039 59.6515 9.53494 59.4603 9.71948Z" fill="#343636"/>
<path fill-rule="evenodd" clip-rule="evenodd" d="M62.6519 6.88977V13.7795H64.65C65.7458 13.7795 66.5193 13.5335 67.0994 12.9798C67.7439 12.3647 68.0662 11.5035 68.0662 10.3347C68.0662 9.16585 67.6795 8.30463 66.906 7.62796C66.3259 7.13583 65.488 6.88977 64.4566 6.88977H62.6519ZM65.9392 10.3962C65.9392 11.5034 65.5525 12.1186 64.779 12.1186V8.6122H64.8434C65.1657 8.6122 65.4236 8.79675 65.6169 9.10433C65.8103 9.41191 65.9392 9.84252 65.9392 10.3962Z" fill="#343636"/>
<path fill-rule="evenodd" clip-rule="evenodd" d="M15.699 5.19292C16.2487 5.30875 16.7589 5.41623 17.0374 5.49945C17.6104 5.68963 17.4831 5.87981 16.8464 5.81642C16.4153 5.73057 15.1378 5.52845 14.1206 5.36752C13.6355 5.29079 13.2096 5.22341 12.963 5.18248C12.199 5.05569 11.7534 5.11908 11.4351 5.43605C11.1168 5.68963 10.6075 5.94321 10.2255 6.06999C9.91828 6.17196 9.89932 6.27393 9.83744 6.60673C9.82237 6.68774 9.80477 6.78243 9.77984 6.89412C9.65252 7.46467 9.01589 8.47898 8.12461 9.36649C7.23333 10.254 6.40571 10.7612 6.40571 10.7612C6.40571 10.7612 6.66036 11.0147 6.72402 11.2049C6.85135 11.4585 6.66036 11.4585 6.66036 11.4585C6.66036 11.4585 6.78768 11.7121 6.72402 11.9023C6.66036 12.0924 6.40571 12.1558 6.40571 12.1558C6.40571 12.1558 6.46937 12.2826 6.40571 12.4728C6.34204 12.7264 5.83274 12.7264 5.57809 12.0924C5.25978 11.4585 5.19611 10.3174 5.19611 9.3031C5.25978 8.2254 5.57809 7.52806 5.57809 7.52806C5.57809 7.52806 4.94146 7.59146 4.49582 7.46467C4.05018 7.27449 3.09524 6.32358 2.45861 5.68964L2.45861 5.68963C1.82198 5.05569 0.548722 3.21726 0.29407 2.83689C0.0394184 2.45653 -0.15157 1.94937 0.166744 1.82258C0.485059 1.6958 1.50367 1.6958 2.84059 2.01277C4.11384 2.39313 6.27838 3.8512 6.27838 3.8512C6.27838 3.8512 6.27838 3.28065 6.34204 2.83689C6.40571 2.39313 6.66036 2.26634 6.66036 2.26634C6.66036 2.26634 6.5967 1.94937 6.66036 1.6324C6.72402 1.31543 6.97867 1.12525 6.97867 1.12525C6.97867 1.12525 6.97867 0.681488 7.04234 0.427911C7.106 0.237728 7.42431 -0.206031 7.74263 0.11094C7.99728 0.427911 8.18827 0.744882 8.31559 1.44222C8.44292 2.13955 8.44292 3.72441 8.44292 3.91459C8.44292 4.10477 8.76124 3.8512 9.20688 3.40744C9.71618 2.96368 10.0982 2.7735 10.6711 2.90029C11.1833 3.01362 11.6955 3.5322 12.0712 3.91265C12.1158 3.95781 12.1585 4.00102 12.199 4.04138C12.5173 4.42175 12.963 4.54853 13.7906 4.73872C14.2203 4.88134 14.9924 5.04403 15.699 5.19292ZM7.2333 0.6815C7.29697 0.554712 7.48796 0.744894 7.61528 1.12526C7.74261 1.50562 7.86993 2.13957 7.86993 2.39314C7.86993 2.64672 7.74261 2.45654 7.67895 2.32975C7.61528 2.26636 7.42429 1.8226 7.29697 1.50562C7.2333 1.18865 7.16964 0.808288 7.2333 0.6815ZM7.23339 2.39315C7.16973 2.01278 7.10606 1.94939 7.0424 1.88599C6.97874 1.8226 6.91508 1.88599 6.85141 2.20297C6.85141 2.51994 6.97874 2.83691 7.16973 3.15388C7.24267 3.27493 7.30632 3.38674 7.36069 3.48223L7.3607 3.48225L7.36072 3.48228C7.4487 3.63682 7.51236 3.74864 7.5517 3.78782C7.61537 3.85121 7.80636 3.91461 7.61537 3.53424C7.5517 3.40745 7.29705 2.71012 7.23339 2.39315ZM0.534699 2.13573C0.511956 2.13794 0.495223 2.13956 0.485025 2.13956C0.421362 2.13956 0.294036 2.32975 0.612351 2.39314C0.930665 2.51993 1.24898 2.64672 1.63096 2.77351C2.01293 2.90029 2.33125 2.90029 2.52224 2.90029C2.64956 2.90029 2.84055 2.9003 2.5859 2.71011C2.39491 2.58332 1.75828 2.26635 1.31264 2.20296C0.938389 2.09648 0.653936 2.12413 0.534699 2.13573ZM1.88563 3.02709C2.33127 3.02709 2.84057 3.15387 3.03156 3.21727C3.34987 3.28066 3.34987 3.40745 3.22255 3.40745C3.20409 3.40745 3.15889 3.41278 3.09468 3.42035L3.09468 3.42035C2.93741 3.43888 2.66617 3.47085 2.39493 3.47085C1.94929 3.47085 1.56731 3.40745 1.12167 3.21727C0.61237 2.9003 1.43999 2.96369 1.88563 3.02709ZM11.0531 5.37266C11.2441 5.18248 11.435 5.05569 11.817 4.9923C12.1353 4.9289 12.199 4.80211 11.9443 4.86551C11.8807 4.80211 11.626 4.80211 11.3714 4.80211C11.1167 4.80211 10.7984 4.86551 10.7984 4.86551C10.7984 4.86551 10.6711 5.11908 10.4801 5.05569C10.3464 5.0224 10.318 4.93665 10.2935 4.86272C10.2714 4.79589 10.2525 4.73872 10.1618 4.73872C9.97079 4.73872 10.0345 4.61193 10.1618 4.54854C10.2188 4.52962 10.2701 4.50505 10.3192 4.48158C10.4344 4.4264 10.5371 4.37727 10.6711 4.42175C10.7645 4.445 10.8493 4.47677 10.9319 4.5077C11.0744 4.56109 11.2101 4.61193 11.3714 4.61193C11.6897 4.61193 11.626 4.42175 11.3714 4.42175C11.1167 4.35835 10.9257 4.23157 10.8621 4.04138C10.7984 3.8512 10.3528 4.04138 10.1618 4.23157C9.97079 4.35835 9.71614 4.48514 9.2705 4.48514C8.85143 4.48514 8.64348 4.4431 8.5209 4.41831C8.38279 4.39039 8.35308 4.38438 8.2519 4.48514L7.86992 4.86551C7.80626 4.9289 8.12457 4.86551 8.44289 4.80211C8.82486 4.73872 8.7612 4.9289 8.50655 5.18248C8.37922 5.30927 7.80626 5.37266 7.42428 5.18248C7.30755 5.10499 7.17893 5.00974 7.02388 4.89491C6.67157 4.634 6.18281 4.27204 5.38707 3.78781C4.24113 3.09047 4.11381 3.09047 4.11381 3.09047C4.11381 3.09047 4.55945 3.40744 5.06875 3.72441C5.3097 3.93007 5.68093 4.19133 6.0315 4.43804L6.03151 4.43805L6.03153 4.43806L6.03155 4.43807L6.03157 4.43809L6.03159 4.4381L6.03163 4.43813L6.03167 4.43815L6.03168 4.43816L6.03173 4.4382C6.32945 4.64772 6.61225 4.84674 6.78765 4.9923C7.16963 5.30927 7.42428 6.0066 6.97864 6.26018C6.533 6.57715 5.25974 6.83073 4.75044 6.89412C4.24113 6.95752 4.49579 7.21109 4.75044 7.21109C5.06875 7.21109 5.57805 7.1477 6.02369 7.08431C6.13207 7.06889 6.24045 7.04972 6.34424 7.03137C6.66726 6.97424 6.94594 6.92496 7.0423 7.02091C7.16963 7.1477 7.0423 7.33788 6.72399 7.65485C6.59666 7.78164 6.27835 8.09861 5.83271 8.92274C5.46443 9.60379 5.48745 10.155 5.50654 10.612C5.51055 10.7081 5.51439 10.7999 5.51439 10.888C5.51439 11.3227 5.65471 11.7108 5.73489 11.9326L5.7349 11.9326L5.73492 11.9326C5.74827 11.9696 5.75995 12.0019 5.76904 12.0291C5.83271 12.2192 6.02369 12.1558 6.02369 11.9657C5.96003 11.8389 5.89637 11.6487 5.83271 11.4585C5.76904 11.2683 5.83271 11.2049 5.89637 11.3317C5.94103 11.4651 6.01703 11.5674 6.10238 11.6822C6.13869 11.731 6.17669 11.7821 6.21468 11.8389C6.34201 12.0291 6.40567 11.8389 6.34201 11.7755C6.23724 11.7233 6.17557 11.6282 6.08607 11.4902C6.0668 11.4605 6.04625 11.4288 6.02369 11.3951C5.89637 11.2049 5.83271 11.0147 5.83271 10.8246C5.83271 10.571 5.89637 10.5076 6.02369 10.8246C6.02369 11.0147 6.15102 11.2049 6.34201 11.3951C6.533 11.5219 6.59666 11.3951 6.40567 11.2049C6.27835 11.0781 6.15102 10.8246 6.08736 10.571C5.96003 10.3174 6.21468 10.1906 6.21468 10.3174C6.21468 10.5076 6.40567 10.4442 6.59666 10.3808C6.78765 10.3174 7.74259 9.55668 8.50655 8.66916C9.2705 7.71825 9.52515 6.70394 9.58882 6.26018C9.65248 5.81642 9.84347 5.75303 10.1618 5.75303C10.4801 5.75303 10.8621 5.56284 11.0531 5.37266ZM3.92284 6.32359C3.79552 6.38698 3.85918 6.57717 4.1775 6.57717C4.49581 6.57717 4.87779 6.51377 5.25977 6.45038C5.64174 6.38698 6.15105 6.26019 6.27837 6.1968C6.34203 6.13341 6.4057 6.07001 6.21471 6.07001C6.08738 6.00662 5.38709 6.07001 5.00511 6.13341C4.88269 6.15779 4.71319 6.18217 4.54368 6.20655L4.54365 6.20655C4.27243 6.24557 4.0012 6.28458 3.92284 6.32359ZM3.41361 6.06999C3.15896 6.0066 3.03163 5.81642 3.15896 5.75302C3.25217 5.75302 3.55008 5.71905 3.92781 5.67597L3.92797 5.67596C4.06618 5.66019 4.21508 5.64321 4.36855 5.62623C4.55375 5.60318 4.77262 5.58013 4.9915 5.55708C5.37453 5.51673 5.75756 5.47639 5.96012 5.43605C6.21478 5.43605 6.08745 5.49944 5.96012 5.56284C5.89646 5.68963 5.32349 5.87981 4.81419 5.9432C4.30489 6.06999 3.66826 6.06999 3.41361 6.06999ZM3.98653 4.92889C3.22257 4.99229 2.64961 4.99229 2.45862 4.99229C2.26763 4.99229 2.39495 5.11908 2.52228 5.24586C2.71327 5.37265 2.96792 5.37265 3.41356 5.37265C3.92286 5.37265 4.81414 5.30926 5.25978 5.24586C5.70542 5.18247 6.27839 4.92889 5.76909 4.92889H3.98653ZM2.07664 4.35837H3.15891H4.87781C5.13246 4.42176 5.19612 4.48516 5.00513 4.48516C4.91863 4.48516 4.83212 4.49816 4.69829 4.51828C4.53665 4.54258 4.30597 4.57726 3.92286 4.61194C3.22257 4.67534 2.33129 4.67534 2.07664 4.61194C1.82199 4.54855 1.88565 4.35837 2.07664 4.35837ZM1.71004 3.65334L1.71003 3.65334C1.64552 3.6577 1.59642 3.66101 1.5673 3.66101C1.43997 3.72441 1.50364 3.8512 1.75829 3.97798C1.94928 4.04138 3.03155 4.04138 3.47719 4.04138C3.92283 4.04138 4.43213 3.91459 4.11382 3.8512C3.97491 3.80509 3.56663 3.75899 3.15834 3.71288C3.00524 3.69559 2.85213 3.6783 2.71323 3.66101C2.32041 3.61212 1.92759 3.63865 1.71004 3.65334ZM6.59667 2.90029C6.66034 2.7735 6.78766 2.83689 6.85133 3.02707C6.85133 3.15386 6.91499 3.53423 6.97865 3.72441C7.04232 3.91459 7.16964 4.16817 7.36063 4.42175C7.48796 4.67532 7.2333 4.61193 7.10598 4.42175C7.07835 4.38048 7.05072 4.3422 7.02244 4.30301C6.9204 4.16162 6.80988 4.00849 6.66034 3.66102C6.51416 3.32137 6.55445 3.13027 6.58141 3.00245C6.58967 2.96327 6.59667 2.93003 6.59667 2.90029Z" fill="#FFC425"/>
<path fill-rule="evenodd" clip-rule="evenodd" d="M69.2266 12.2485C68.8399 12.2485 68.4531 12.5964 68.4531 13.014C68.4531 13.4316 68.8399 13.7795 69.2266 13.7795C69.6778 13.7795 70.0001 13.4316 70.0001 13.014C70.0001 12.5964 69.6778 12.2485 69.2266 12.2485ZM68.5819 13.014C68.5819 13.362 68.9042 13.7099 69.2265 13.7099C69.6133 13.7099 69.8711 13.4316 69.8711 13.014C69.8711 12.666 69.5488 12.3181 69.2265 12.3181C68.9042 12.3877 68.5819 12.666 68.5819 13.014ZM69.4843 13.5011H69.6133L69.4199 13.0836C69.4468 13.0691 69.4737 13.0576 69.4994 13.0466C69.597 13.0049 69.6777 12.9704 69.6777 12.8052C69.6777 12.666 69.5488 12.5964 69.3554 12.5964H68.9687V13.5011H69.0976V13.0836H69.2265L69.4843 13.5011ZM69.0976 12.9444V12.7356H69.291C69.4199 12.7356 69.4843 12.7356 69.4843 12.8748C69.4843 12.9444 69.3554 12.9444 69.2265 12.9444H69.0976Z" fill="#343636"/>
</svg>
