<svg width="70" height="15" viewBox="0 0 70 15" fill="none" xmlns="http://www.w3.org/2000/svg">
<path fill-rule="evenodd" clip-rule="evenodd" d="M18.2069 10.1656C18.1372 10.6383 18.0815 11.111 17.9979 11.7366C21.0208 11.7366 23.9462 11.7366 26.9691 11.7366C26.774 12.682 26.6208 13.4467 26.4536 14.2947C25.98 14.2669 25.576 14.2391 25.172 14.2391C22.0656 14.2391 18.9591 14.253 15.8526 14.2669C14.7939 14.2669 13.9442 13.1964 14.1531 12.0286C14.3621 10.8469 14.6128 9.66512 14.8497 8.49729C15.0586 7.48239 15.2676 6.46749 15.4626 5.43868C15.7133 4.04841 16.382 3.47839 17.789 3.47839C21.174 3.4923 24.5591 3.5062 27.9581 3.5201C28.1671 3.5201 28.3621 3.54791 28.6128 3.56181C28.4317 4.38207 28.2785 5.14673 28.0974 5.96699C25.0745 5.96699 22.1213 5.96699 19.0427 5.96699C18.9591 6.5231 18.8895 7.0097 18.8059 7.63532C21.8984 7.63532 24.8099 7.63532 27.7909 7.63532C27.6377 8.49729 27.5123 9.23414 27.3591 10.0961C26.9412 10.1378 26.5511 10.2073 26.1472 10.2073C23.6397 10.1795 21.1462 10.1517 18.6387 10.11C18.5412 10.0683 18.4437 10.11 18.2069 10.1656Z" fill="#20202A"/>
<path fill-rule="evenodd" clip-rule="evenodd" d="M55.0667 14.3366C55.2617 13.4329 55.4149 12.6822 55.5821 11.8758C58.605 11.8758 61.5721 11.8758 64.6368 11.8758C64.7482 11.3753 64.8458 10.8887 64.9711 10.3187C64.595 10.2909 64.3443 10.2492 64.1074 10.2492C62.199 10.2353 60.3045 10.1936 58.396 10.2075C56.6826 10.2214 56.2647 9.02573 56.4318 7.84399C56.5711 6.92641 56.7662 6.02273 56.9472 5.11905C57.1283 4.24318 57.8806 3.61755 58.7861 3.61755C62.4079 3.61755 66.0298 3.64536 69.6378 3.65926C69.7214 3.65926 69.805 3.70097 70 3.75658C69.8467 4.52123 69.6935 5.27198 69.5403 6.06444C66.4756 6.06444 63.4945 6.06444 60.3741 6.06444C60.2487 6.56494 60.1234 7.06544 59.9701 7.64935C60.2766 7.69106 60.4577 7.73277 60.6249 7.73277C62.5055 7.74667 64.3861 7.76058 66.2666 7.74667C67.9662 7.73277 68.9134 8.80328 68.593 10.4577C68.4398 11.2502 68.2726 12.0426 68.0776 12.8212C67.7851 13.9751 67.2 14.42 65.9741 14.4061C63.6338 14.3922 61.2935 14.3366 58.9532 14.3088C57.7134 14.3227 56.4597 14.3366 55.0667 14.3366Z" fill="#20202A"/>
<path fill-rule="evenodd" clip-rule="evenodd" d="M9.97413 9.49836C10.3781 7.52417 10.7682 5.54998 11.1861 3.50627C12.3562 3.50627 13.4985 3.50627 14.808 3.50627C14.0975 7.07928 13.3871 10.6245 12.6766 14.2114C11.7015 14.2114 10.8517 14.2531 10.002 14.1975C9.3194 14.1558 8.79005 13.7804 8.41393 13.1965C7.46667 11.6811 6.5194 10.1796 5.57214 8.6781C5.4189 8.44175 5.20995 8.23321 4.90348 7.84394C4.42985 10.0545 3.99801 12.0704 3.56617 14.1419C2.38209 14.1419 1.21194 14.1419 0 14.1419C0.710448 10.5967 1.39303 7.10709 2.11741 3.52018C3.19005 3.52018 4.30448 3.42286 5.37711 3.56188C5.80895 3.6175 6.25473 4.1597 6.53333 4.57679C7.50846 6.03658 8.42786 7.53807 9.37512 9.01177C9.5005 9.1925 9.6398 9.35934 9.76517 9.54007C9.84875 9.52617 9.91841 9.51227 9.97413 9.49836Z" fill="#20202A"/>
<path fill-rule="evenodd" clip-rule="evenodd" d="M47.0147 3.60364C46.4854 6.37029 45.9839 9.02572 45.4545 11.7924C47.3073 11.7924 49.0346 11.7924 50.9013 11.7924C51.4585 9.12303 52.0157 6.39809 52.5729 3.67315C53.8267 3.67315 54.9968 3.67315 56.2366 3.67315C56.0137 4.75757 55.7909 5.75857 55.5819 6.77347C55.2197 8.58083 54.8714 10.4021 54.4953 12.2094C54.4257 12.5709 54.3142 12.9324 54.161 13.2661C53.8545 13.9195 53.3391 14.3227 52.5869 14.3227C49.6197 14.3227 46.6525 14.3366 43.6854 14.3227C42.2784 14.3088 41.5122 13.3495 41.7769 11.9731C42.2227 9.67915 42.7103 7.39909 43.156 5.10514C43.2535 4.61854 43.2953 4.10414 43.365 3.61754C44.5909 3.60364 45.7749 3.60364 47.0147 3.60364Z" fill="#20202A"/>
<path fill-rule="evenodd" clip-rule="evenodd" d="M34.589 11.5421C33.6836 12.557 32.8895 13.4467 32.2209 14.1975C30.3124 14.1975 28.6826 14.1975 27.0667 14.1975C28.8219 12.3623 30.5632 10.5411 32.4159 8.59468C32.2348 8.24711 32.0259 7.76051 31.7472 7.34343C30.9114 6.09218 30.0338 4.86874 29.1144 3.54797C30.5632 3.54797 31.9144 3.54797 33.391 3.54797C35.8288 7.03757 38.3363 10.5967 40.8995 14.267C39.3811 14.267 38.002 14.267 36.6089 14.267C35.9681 13.405 35.3413 12.5709 34.589 11.5421Z" fill="#20202A"/>
<path fill-rule="evenodd" clip-rule="evenodd" d="M40.3981 5.81414C38.824 5.81414 37.2917 5.81414 35.7036 5.81414C35.7593 5.70292 35.7733 5.5917 35.8429 5.52218C37.5842 3.85385 39.3255 2.19942 41.0668 0.53109C41.4568 0.155715 41.8608 -0.0250208 42.418 0.00278469C43.6718 0.0583957 44.9255 0.0166874 46.1653 0.0166874C46.1932 0.0722985 46.221 0.141812 46.2489 0.197423C44.3126 2.0743 42.3623 3.93727 40.3981 5.81414Z" fill="#ED5144"/>
</svg>
