<svg width="184" height="24" viewBox="0 0 184 24" fill="none" xmlns="http://www.w3.org/2000/svg">
<path d="M21.1662 8.47152C21.1662 13.6763 18.0113 15.4112 12.4902 15.4112H5.91754V22.3508H0.396484V1.53186H13.016C18.2742 1.53186 21.1662 3.76246 21.1662 8.47152ZM15.6451 8.47152C15.6451 6.7366 14.8564 5.49738 12.4902 5.49738H5.91754V11.4457H12.4902C14.8564 11.4457 15.6451 10.2064 15.6451 8.47152Z" fill="#005AF0"/>
<path d="M45.6164 15.4112C45.6164 20.6159 42.4615 22.3508 36.9405 22.3508H25.3726V1.53186H30.8936V8.71936H37.4663C42.7244 8.71936 45.6164 10.7021 45.6164 15.4112ZM40.0954 15.4112C40.0954 13.6763 39.3066 12.437 36.9405 12.437H30.8936V18.3853H36.9405C39.3066 18.3853 40.0954 17.1461 40.0954 15.4112ZM53.5036 1.53186V22.3508H47.9826V1.53186H53.5036Z" fill="#005AF0"/>
<path d="M78.7429 15.9069C78.7429 20.6159 75.8509 22.3508 70.3298 22.3508H58.2361V1.53186H76.6396V5.74522H63.4942V9.21505H70.3298C75.8509 9.21505 78.7429 11.1978 78.7429 15.9069ZM73.2218 15.9069C73.2218 14.1719 72.4331 13.1806 70.0669 13.1806H63.4942V18.6332H70.0669C72.4331 18.6332 73.2218 17.3939 73.2218 15.9069Z" fill="#005AF0"/>
<path d="M94.2543 1.28406C102.404 1.28406 107.137 4.50604 107.137 11.9414C107.137 19.3767 102.404 22.8466 94.2543 22.8466C86.1042 22.8466 81.3718 19.6246 81.3718 11.9414C81.3718 4.50604 86.1042 1.28406 94.2543 1.28406ZM94.2543 18.6332C99.7753 18.6332 101.353 16.1547 101.353 12.1892C101.353 8.22371 99.7753 5.74527 94.2543 5.74527C88.7332 5.74527 87.1558 8.22371 87.1558 12.1892C87.1558 15.9069 88.7332 18.6332 94.2543 18.6332Z" fill="#005AF0"/>
<path d="M107.926 22.5987V18.3853H108.188C110.818 18.3853 111.343 16.6504 111.869 11.4457C112.132 8.22367 112.132 4.25815 112.132 1.53186H130.273V22.3508H124.752V5.74522H116.864C116.864 7.48014 116.601 10.4543 116.601 11.6935C116.076 19.6245 115.024 22.8465 109.503 22.8465C108.714 22.5987 108.188 22.5987 107.926 22.5987Z" fill="#005AF0"/>
<path d="M147.099 1.28406C155.249 1.28406 159.981 4.50604 159.981 11.9414C159.981 19.3767 155.249 22.8466 147.099 22.8466C138.949 22.8466 134.216 19.6246 134.216 11.9414C134.479 4.50604 139.212 1.28406 147.099 1.28406ZM147.099 18.6332C152.62 18.6332 154.197 16.1547 154.197 12.1892C154.197 8.22371 152.62 5.74527 147.099 5.74527C141.578 5.74527 140 8.22371 140 12.1892C140 15.9069 141.578 18.6332 147.099 18.6332Z" fill="#005AF0"/>
<path d="M183.38 16.4026C183.38 19.8725 181.802 22.5988 175.23 22.5988H163.399V1.77979H174.967C180.751 1.77979 182.854 3.26685 182.854 6.98453C182.854 8.71944 181.802 10.4544 179.699 11.1979V11.4457C182.065 11.9414 183.38 13.6763 183.38 16.4026ZM174.967 5.24961H168.92V9.95866H174.967C176.807 9.95866 177.596 9.21513 177.596 7.72806C177.596 5.99315 176.807 5.24961 174.967 5.24961ZM177.859 15.9069C177.859 14.4199 177.333 13.4285 174.967 13.4285H168.657V18.3854H174.967C177.333 18.6332 177.859 17.394 177.859 15.9069Z" fill="#005AF0"/>
</svg>
