<svg width="70" height="7" viewBox="0 0 70 7" fill="none" xmlns="http://www.w3.org/2000/svg">
<g opacity="0.8">
<path fill-rule="evenodd" clip-rule="evenodd" d="M0.357664 0.202306L0.357665 0.202306L0.357665 0.202306C0.607291 0.159021 0.859508 0.115286 1.11972 0.103479L1.13709 0.103291C2.74077 0.0858898 4.32721 0.0686759 5.93102 0.103479C6.59585 0.120944 7.27818 0.225731 7.89053 0.435305C9.04524 0.819524 9.22019 1.48318 8.50287 2.44372C8.65879 2.5271 8.81647 2.60517 8.97367 2.683L8.97369 2.68301C9.31041 2.84971 9.64491 3.01532 9.95501 3.22963C11.0922 4.01553 11.0047 5.1158 9.81505 5.77945C9.04524 6.1986 8.20545 6.30338 7.36566 6.30338C5.21945 6.33822 3.07324 6.32094 0.909667 6.30352L0.892277 6.30338C0.67304 6.30338 0.453804 6.20849 0.241574 6.11663C0.165884 6.08387 0.0910854 6.0515 0.0174956 6.02395V5.84931C0.246536 5.72008 0.469909 5.59651 0.700518 5.46894L0.700523 5.46893L0.700707 5.46883C0.875193 5.3723 1.05382 5.27349 1.24219 5.16819V1.22121C0.873422 1.0503 0.574054 0.899183 0.284381 0.752961L0.284379 0.75296C0.189245 0.704938 0.0951573 0.657444 0 0.60995V0.26066C0.119023 0.243687 0.238046 0.223048 0.357664 0.202306ZM3.639 3.22963V5.3603C4.10773 5.33541 4.57504 5.35593 5.03567 5.37614H5.03567C6.19119 5.42686 7.30462 5.47573 8.29283 4.80144C8.50278 4.12032 8.18786 3.80596 7.78546 3.61385C6.45579 2.91527 5.07364 2.9502 3.639 3.22963ZM6.80583 1.48314C6.29845 2.1468 4.88131 2.35637 3.62162 1.95469V1.02907C3.89086 1.0376 4.15905 1.02737 4.42517 1.01723C5.24855 0.985838 6.05217 0.955201 6.80583 1.48314Z" fill="black"/>
<path fill-rule="evenodd" clip-rule="evenodd" d="M69.9824 6.024C69.685 6.11132 69.4051 6.28597 69.1076 6.28597C68.0229 6.3209 66.9557 6.3209 65.8709 6.30343C65.591 6.30343 65.2936 6.21611 64.8737 6.14625C65.1186 5.79696 65.2761 5.60485 65.4335 5.37781C64.8387 4.90627 64.2438 4.43473 63.649 3.92826C63.0017 4.43473 62.4243 4.8888 61.7945 5.37781C61.9694 5.56992 62.1094 5.7271 62.3018 5.93668C62.1444 6.07639 62.0219 6.25104 61.8994 6.25104C60.8497 6.25104 59.8 6.23357 58.7677 6.19864C58.6802 6.19864 58.6103 6.00653 58.4353 5.76203C58.8202 5.65724 59.1176 5.58739 59.3976 5.4826C59.8524 5.30795 60.3423 5.16824 60.7272 4.8888C61.427 4.41726 62.0569 3.8584 62.8267 3.24714C62.1094 2.67081 61.4795 2.07702 60.7622 1.62294C60.0449 1.18633 59.2226 0.889431 58.3303 0.470282C58.5228 0.330566 58.6627 0.103528 58.8202 0.103528C60.1849 0.086063 61.5495 0.103528 62.9317 0.138457C63.0017 0.138457 63.0716 0.225779 63.2116 0.313102C63.1241 0.505211 63.0541 0.697321 62.9317 0.976753C63.3516 1.29111 63.8065 1.65787 64.3138 2.04209C64.7512 1.6928 65.1711 1.34351 65.696 0.941824C65.3986 0.819573 65.1886 0.714786 64.9787 0.609999C65.2061 0.0685985 65.5035 0.086063 65.801 0.051134C67.5855 -0.0711176 68.3903 0.0162049 68.8452 0.417889C68.7227 0.522676 68.6178 0.714786 68.4778 0.73225C67.0606 0.819573 66.2383 1.86744 65.1361 2.70574C65.7835 3.22968 66.3783 3.70122 66.9732 4.20769C67.708 4.81895 68.4428 5.4302 69.475 5.51753C69.65 5.53499 69.8249 5.70964 69.9999 5.79696C69.9824 5.90175 69.9824 5.97161 69.9824 6.024Z" fill="black"/>
<path fill-rule="evenodd" clip-rule="evenodd" d="M21.3622 4.36494C22.9019 5.62238 26.2785 5.58745 27.5907 4.27762C27.5907 3.66636 27.5907 2.96778 27.5907 2.2692C27.5907 1.90244 27.5907 1.51822 27.5907 1.22132C27.1708 0.976821 26.8559 0.784711 26.541 0.610066C26.7509 0.0686662 27.1358 0.103595 27.4682 0.103595C29.2003 0.0686662 29.2003 0.0686662 29.7776 0.557673C29.4452 0.767247 29.1478 0.941892 28.7454 1.20386C28.7454 1.95483 28.6929 2.82806 28.7629 3.68382C28.8329 4.73169 28.308 5.32549 27.4332 5.70971C26.1735 6.25111 24.8439 6.37336 23.4967 6.32096C22.8844 6.3035 22.2895 6.18125 21.6772 6.07646C20.8024 5.93674 20.0326 5.56999 19.3328 4.90634C19.2978 5.36042 19.2628 5.72717 19.2278 6.16378C18.8429 6.21618 18.5105 6.3035 18.178 6.3035C15.9386 6.32096 13.6992 6.32096 11.4422 6.3035C11.0748 6.3035 10.6724 6.33843 10.445 5.93674C10.515 5.30802 11.0923 5.44774 11.5472 5.16831C11.5472 3.8934 11.5472 2.54863 11.5472 1.16893C11.1623 1.01175 10.7424 0.81964 10.3225 0.644995C10.445 0.103595 10.7599 0.0861307 11.0923 0.0861307C12.2645 0.0861307 13.4192 0.0686662 14.5914 0.103595C14.8189 0.103595 15.0463 0.225847 15.3088 0.295705C15.0813 1.09907 14.399 0.85457 13.9266 1.11654C13.9266 2.47877 13.9266 3.841 13.9266 5.27309C14.1016 5.30802 14.2765 5.37788 14.434 5.37788C15.5012 5.39534 16.5859 5.37788 17.4607 5.37788C18.1256 4.99366 18.6154 4.71423 19.1053 4.4348C19.1053 3.40439 19.1053 2.30412 19.1053 1.27372C18.7204 0.924428 18.0556 1.11654 18.0031 0.330634C18.248 0.260776 18.5105 0.12106 18.7554 0.103595C20.7149 -0.0186564 22.1146 0.103595 22.6044 0.435421C22.517 1.15147 21.7821 0.906963 21.3622 1.23879C21.3622 2.25173 21.3622 3.28214 21.3622 4.36494Z" fill="black"/>
<path fill-rule="evenodd" clip-rule="evenodd" d="M50.5974 5.63982C51.7696 6.14629 53.0118 6.286 54.3939 6.3384C54.5391 6.32287 54.695 6.31041 54.8581 6.29739C55.2452 6.26645 55.6724 6.23231 56.091 6.14629C57.1932 5.97164 58.243 5.62235 59.1528 4.94124C60.4999 3.92829 60.5174 2.46127 59.1353 1.4658C58.6454 1.11651 58.0855 0.837074 57.5082 0.644964C55.4437 -0.0186875 53.3267 -0.071081 51.2447 0.610035C50.6499 0.802145 50.0375 1.08158 49.5302 1.44833C48.0605 2.4962 48.0955 4.08547 49.6001 5.09842C49.9151 5.30799 50.2475 5.48264 50.5974 5.63982ZM57.1582 4.50473C56.3359 5.20331 55.3387 5.39542 54.3414 5.46528C53.3792 5.43035 52.4694 5.27317 51.6646 4.71431C50.4749 3.91094 50.4399 2.70589 51.5596 1.83266C52.9943 0.714933 55.7411 0.749862 57.1407 1.90252C58.068 2.67096 58.0855 3.71883 57.1582 4.50473Z" fill="black"/>
<path fill-rule="evenodd" clip-rule="evenodd" d="M33.4342 2.0945C34.0465 2.0945 34.5539 2.0945 35.0963 2.0945C35.4462 1.98971 35.6561 1.44831 36.2335 1.78014C36.216 2.26914 36.181 2.79308 36.146 3.45673C35.2012 3.26462 34.3789 2.75815 33.4342 3.1773C33.4342 3.84095 33.4342 4.52207 33.4342 5.30797C34.7114 5.44769 35.9361 5.37783 37.1083 5.36036C37.5981 5.0984 37.7556 4.32996 38.4904 4.71418C38.7528 5.15079 38.7004 5.62233 38.5079 6.1812C38.2455 6.23359 37.9655 6.30345 37.6856 6.30345C35.3587 6.32091 33.0318 6.32091 30.6874 6.32091C30.3375 6.32091 29.9875 6.32091 29.8301 5.76205C30.215 5.5874 30.5999 5.41276 31.0373 5.22065C31.0373 3.91081 31.0373 2.54858 31.0373 1.20381C30.7399 0.837054 30.005 1.15142 29.8301 0.348047C30.1275 0.260725 30.3899 0.121009 30.6874 0.121009C32.6644 0.103544 34.6414 0.103544 36.6359 0.121009C37.3882 0.121009 37.6156 0.348047 37.8956 1.27367C37.3882 1.67535 37.3882 1.67535 36.4959 1.04663C35.5162 1.04663 34.5014 1.04663 33.4342 1.04663C33.4342 1.39592 33.4342 1.71028 33.4342 2.0945Z" fill="black"/>
<path fill-rule="evenodd" clip-rule="evenodd" d="M47.7804 3.22962C47.2555 3.63131 47.0106 3.1423 46.7831 3.08991C45.9259 3.08991 45.1735 3.08991 44.3862 3.08991C44.3862 3.85835 44.3862 4.57439 44.3862 5.25551C44.7362 5.69212 45.4535 5.32537 45.6634 5.93662C45.2785 6.40816 45.2785 6.40816 41.7619 6.35577C41.412 6.35577 40.9746 6.49549 40.8171 5.83184C41.2195 5.65719 41.6219 5.48255 42.0768 5.29044C42.0768 3.9282 42.0768 2.54851 42.0768 1.15135C41.7794 0.749662 41.0621 1.11642 40.8171 0.365442C41.0446 0.27812 41.272 0.138404 41.482 0.138404C43.6689 0.120939 45.8559 0.120939 48.0428 0.138404C48.2178 0.138404 48.3752 0.208262 48.6027 0.260655C48.7427 0.540087 48.9001 0.836984 49.0401 1.13388C48.4452 1.84993 48.0778 1.16881 47.483 1.01163C46.6082 1.01163 45.5585 1.01163 44.4037 1.01163C44.3862 1.36092 44.3688 1.67528 44.3338 2.07696C45.1386 2.07696 45.8384 2.07696 46.6082 2.07696C46.8531 1.93725 47.1506 1.78007 47.4655 1.62289C47.9903 2.14682 47.6579 2.72315 47.7804 3.22962Z" fill="black"/>
</g>
</svg>
