<svg width="130" height="131" viewBox="0 0 130 131" fill="none" xmlns="http://www.w3.org/2000/svg">
<g opacity="0.8">
<path fill-rule="evenodd" clip-rule="evenodd" d="M5 60.4215C5.20404 60.3924 5.40808 60.357 5.61314 60.3214C6.04107 60.2472 6.47344 60.1722 6.91952 60.152L6.9493 60.1517C9.69847 60.1218 12.4181 60.0923 15.1675 60.152C16.3072 60.1819 17.4769 60.3616 18.5266 60.7208C20.5061 61.3795 20.806 62.5172 19.5764 64.1639C19.8436 64.3068 20.114 64.4406 20.3835 64.574L20.3835 64.5741C20.9607 64.8598 21.5341 65.1437 22.0657 65.5111C24.0152 66.8584 23.8653 68.7445 21.8258 69.8822C20.5061 70.6008 19.0665 70.7804 17.6268 70.7804C13.9477 70.8401 10.2685 70.8105 6.55965 70.7806L6.52962 70.7804C6.15378 70.7804 5.77795 70.6177 5.41413 70.4603L5.41411 70.4603C5.28436 70.4041 5.15614 70.3486 5.02999 70.3014V70.002C5.42262 69.7805 5.80553 69.5686 6.20085 69.3499C6.50008 69.1844 6.80643 69.0149 7.12947 68.8344V62.0681C6.49729 61.7751 5.98409 61.5161 5.48751 61.2654L5.48751 61.2654L5.48742 61.2654C5.32436 61.183 5.1631 61.1016 5 61.0202V60.4215ZM11.2384 65.5111V69.1637C12.0419 69.1211 12.8431 69.1562 13.6327 69.1909C15.6136 69.2778 17.5223 69.3616 19.2164 68.2057C19.5763 67.038 19.0365 66.4991 18.3466 66.1698C16.0672 64.9722 13.6978 65.0321 11.2384 65.5111ZM16.6671 62.5172C15.7973 63.6548 13.3679 64.0141 11.2084 63.3255V61.7387C11.67 61.7534 12.1297 61.7358 12.586 61.7184C13.9975 61.6646 15.3751 61.6121 16.6671 62.5172Z" fill="#0066B3"/>
<path fill-rule="evenodd" clip-rule="evenodd" d="M124.97 70.3015C124.46 70.4512 123.98 70.7506 123.47 70.7506C121.611 70.8104 119.781 70.8104 117.922 70.7805C117.442 70.7805 116.932 70.6308 116.212 70.511C116.632 69.9123 116.902 69.5829 117.172 69.1937C116.152 68.3854 115.132 67.577 114.113 66.7088C113.003 67.577 112.013 68.3554 110.933 69.1937C111.233 69.523 111.473 69.7925 111.803 70.1518C111.533 70.3913 111.323 70.6907 111.113 70.6907C109.314 70.6907 107.514 70.6607 105.745 70.6009C105.595 70.6009 105.475 70.2715 105.175 69.8524C105.835 69.6727 106.345 69.553 106.824 69.3733C107.604 69.074 108.444 68.8344 109.104 68.3554C110.304 67.5471 111.383 66.589 112.703 65.5411C111.473 64.5531 110.394 63.5352 109.164 62.7568C107.934 62.0083 106.524 61.4993 104.995 60.7808C105.325 60.5413 105.565 60.1521 105.835 60.1521C108.174 60.1221 110.513 60.1521 112.883 60.212C113.003 60.212 113.123 60.3617 113.363 60.5114C113.213 60.8407 113.093 61.17 112.883 61.649C113.603 62.1879 114.383 62.8167 115.252 63.4753C116.002 62.8765 116.722 62.2778 117.622 61.5892C117.112 61.3796 116.752 61.2 116.392 61.0203C116.782 60.0922 117.292 60.1221 117.802 60.0623C120.861 59.8527 122.241 60.0024 123.02 60.691C122.81 60.8706 122.63 61.2 122.391 61.2299C119.961 61.3796 118.551 63.1759 116.662 64.613C117.772 65.5112 118.791 66.3196 119.811 67.1878C121.071 68.2357 122.331 69.2835 124.1 69.4332C124.4 69.4632 124.7 69.7626 125 69.9123C124.97 70.0919 124.97 70.2116 124.97 70.3015Z" fill="#0066B3"/>
<path fill-rule="evenodd" clip-rule="evenodd" d="M41.6208 67.4573C44.2602 69.613 50.0487 69.5531 52.2982 67.3076C52.2982 66.2598 52.2982 65.0622 52.2982 63.8646C52.2982 63.2359 52.2982 62.5773 52.2982 62.0683C51.5783 61.6491 51.0385 61.3198 50.4986 61.0204C50.8585 60.0923 51.5183 60.1522 52.0882 60.1522C55.0575 60.0923 55.0575 60.0923 56.0472 60.9306C55.4774 61.2899 54.9675 61.5893 54.2777 62.0384C54.2777 63.3257 54.1877 64.8227 54.3077 66.2897C54.4276 68.0861 53.5278 69.104 52.0282 69.7627C49.8688 70.6908 47.5893 70.9003 45.2799 70.8105C44.2302 70.7806 43.2104 70.571 42.1607 70.3914C40.6611 70.1519 39.3414 69.5231 38.1417 68.3855C38.0817 69.1639 38.0217 69.7926 37.9617 70.5411C37.3019 70.6309 36.732 70.7806 36.1622 70.7806C32.3231 70.8105 28.4841 70.8105 24.6151 70.7806C23.9852 70.7806 23.2954 70.8405 22.9055 70.1519C23.0255 69.0741 24.0152 69.3136 24.795 68.8345C24.795 66.649 24.795 64.3437 24.795 61.9785C24.1352 61.709 23.4154 61.3797 22.6956 61.0803C22.9055 60.1522 23.4454 60.1222 24.0152 60.1222C26.0247 60.1222 28.0042 60.0923 30.0137 60.1522C30.4036 60.1522 30.7935 60.3618 31.2434 60.4815C30.8535 61.8587 29.6838 61.4396 28.874 61.8887C28.874 64.2239 28.874 66.5592 28.874 69.0142C29.1739 69.0741 29.4739 69.1938 29.7438 69.1938C31.5733 69.2238 33.4329 69.1938 34.9325 69.1938C36.0722 68.5352 36.912 68.0561 37.7518 67.5771C37.7518 65.8107 37.7518 63.9245 37.7518 62.1581C37.092 61.5593 35.9522 61.8887 35.8623 60.5414C36.2822 60.4216 36.732 60.1821 37.1519 60.1522C40.5111 59.9426 42.9105 60.1522 43.7503 60.721C43.6003 61.9485 42.3406 61.5294 41.6208 62.0982C41.6208 63.8347 41.6208 65.6011 41.6208 67.4573Z" fill="#0066B3"/>
<path fill-rule="evenodd" clip-rule="evenodd" d="M91.7383 69.6429C93.7478 70.5111 95.8773 70.7506 98.2467 70.8405C98.4955 70.8138 98.7628 70.7925 99.0423 70.7701C99.706 70.7171 100.438 70.6586 101.156 70.5111C103.046 70.2117 104.845 69.6129 106.405 68.4453C108.714 66.7088 108.744 64.194 106.375 62.4874C105.535 61.8886 104.575 61.4096 103.585 61.0803C100.046 59.9426 96.4172 59.8528 92.8481 61.0204C91.8283 61.3497 90.7786 61.8288 89.9088 62.4575C87.3894 64.2538 87.4494 66.9783 90.0288 68.7148C90.5686 69.074 91.1385 69.3734 91.7383 69.6429ZM102.986 67.697C101.576 68.8946 99.8664 69.2239 98.1568 69.3436C96.5072 69.2838 94.9476 69.0143 93.568 68.0563C91.5285 66.6791 91.4685 64.6133 93.388 63.1163C95.8474 61.2002 100.556 61.2601 102.956 63.2361C104.545 64.5534 104.575 66.3497 102.986 67.697Z" fill="#0066B3"/>
<path fill-rule="evenodd" clip-rule="evenodd" d="M62.3157 63.5651C63.3654 63.5651 64.2352 63.5651 65.165 63.5651C65.7648 63.3855 66.1247 62.4574 67.1145 63.0262C67.0845 63.8645 67.0245 64.7627 66.9645 65.9004C65.3449 65.5711 63.9353 64.7028 62.3157 65.4214C62.3157 66.559 62.3157 67.7267 62.3157 69.0739C64.5051 69.3134 66.6046 69.1937 68.6141 69.1638C69.4539 68.7147 69.7238 67.3973 70.9835 68.056C71.4334 68.8045 71.3434 69.6128 71.0135 70.5709C70.5636 70.6607 70.0837 70.7805 69.6038 70.7805C65.6148 70.8104 61.6258 70.8104 57.6068 70.8104C57.007 70.8104 56.4071 70.8104 56.1372 69.8524C56.797 69.553 57.4569 69.2536 58.2067 68.9242C58.2067 66.6788 58.2067 64.3435 58.2067 62.0382C57.6968 61.4095 56.4371 61.9484 56.1372 60.5712C56.6471 60.4215 57.097 60.182 57.6068 60.182C60.996 60.1521 64.3851 60.1521 67.8043 60.182C69.094 60.182 69.4839 60.5712 69.9638 62.158C69.094 62.8466 69.094 62.8466 67.5644 61.7688C65.8848 61.7688 64.1452 61.7688 62.3157 61.7688C62.3157 62.3676 62.3157 62.9065 62.3157 63.5651Z" fill="#0066B3"/>
<path fill-rule="evenodd" clip-rule="evenodd" d="M86.9094 65.5111C86.0097 66.1997 85.5898 65.3614 85.1999 65.2716C83.7302 65.2716 82.4405 65.2716 81.0909 65.2716C81.0909 66.589 81.0909 67.8165 81.0909 68.9841C81.6907 69.7326 82.9204 69.1038 83.2803 70.1517C82.6205 70.9601 82.6205 70.9601 76.592 70.8703C75.9922 70.8703 75.2423 71.1098 74.9724 69.9721C75.6622 69.6727 76.3521 69.3733 77.1319 69.044C77.1319 66.7087 77.1319 64.3435 77.1319 61.9484C76.622 61.2598 75.3923 61.8885 74.9724 60.6011C75.3623 60.4514 75.7522 60.2119 76.1121 60.2119C79.8612 60.182 83.6103 60.182 87.3593 60.2119C87.6592 60.2119 87.9292 60.3317 88.3191 60.4215C88.559 60.9005 88.8289 61.4095 89.0689 61.9184C88.0491 63.1459 87.4193 61.9783 86.3996 61.7089C84.8999 61.7089 83.1004 61.7089 81.1209 61.7089C81.0909 62.3076 81.0609 62.8466 81.0009 63.5352C82.3806 63.5352 83.5803 63.5352 84.8999 63.5352C85.3198 63.2956 85.8297 63.0262 86.3696 62.7567C87.2693 63.6549 86.6995 64.6429 86.9094 65.5111Z" fill="#0066B3"/>
</g>
</svg>
