<svg width="130" height="131" viewBox="0 0 130 131" fill="none" xmlns="http://www.w3.org/2000/svg">
<path fill-rule="evenodd" clip-rule="evenodd" d="M82.6123 62.2566V67.0011H75.9231V62.1888C75.9231 60.901 76.947 60.3588 77.3565 60.3588H80.8376C81.6567 60.3588 82.6123 61.1043 82.6123 62.2566ZM112.441 60.291H114.83C115.785 60.291 116.604 61.0366 116.604 61.9855V68.9666C116.604 69.9155 115.854 70.6611 114.898 70.6611H112.509C111.553 70.6611 110.803 69.9155 110.803 68.9666V61.9855C110.734 61.0366 111.485 60.291 112.441 60.291ZM71.5546 61.9177V73.1011H75.7866V69.78H82.544V73.1011H86.9125V62.0532C86.8442 59.2743 85.2743 57.7832 83.0218 57.7832H74.9675C72.715 57.7154 71.5546 59.681 71.5546 61.9177ZM120.973 69.5088V61.3076C120.973 59.342 119.335 57.7153 117.355 57.7153H110.052C108.072 57.7153 106.434 59.342 106.434 61.3076V69.5088C106.434 71.4744 108.072 73.1011 110.052 73.1011H117.355C119.335 73.1011 120.973 71.4744 120.973 69.5088ZM8.34849 67.001C8.34849 67.001 8.485 67.001 8.55326 67.001H14.3551C15.3107 67.001 15.8568 67.7466 15.9933 68.4921C16.1981 69.5088 15.5838 70.4577 14.2869 70.4577H5.48169V73.0333H14.5599C15.379 73.0333 16.1981 73.0333 16.6076 73.0333C16.8806 73.0333 17.495 72.8977 17.8362 72.6944C19.2696 72.0166 19.8157 70.5255 19.884 69.1699C19.884 68.6955 19.884 68.3566 19.884 67.8821C19.8157 64.7643 18.9284 63.5443 15.5838 63.5443H10.5327C9.30409 63.6121 9.03106 62.5954 9.03106 61.782C9.09932 60.1554 10.3962 60.3587 11.8296 60.3587H19.4744V57.7153H8.28023C8.0072 57.7153 7.46115 57.8509 7.18812 57.9187C5.68646 58.4609 5.07215 60.1554 5.00389 62.0532C4.93563 64.3576 5.75472 66.9332 8.34849 67.001ZM99.6084 62.9343V73.1688H103.977V61.9854C103.977 59.342 102.475 57.7153 99.7449 57.7153H89.4381V73.1011H93.67V60.2909H97.7654C99.2671 60.2909 99.6084 61.7143 99.6084 62.9343ZM62.6812 60.2232C63.6368 60.3587 64.6606 60.4943 64.6606 62.3921V73.1011H68.9608V62.5954C68.8926 60.3587 69.0291 57.9187 65.4115 57.7831H48.8932V73.1688H53.1934V60.2909H56.8111V73.1688H60.9747V60.2909H62.6812V60.2232ZM40.9072 57.7153V73.1011H45.4122V57.7153H40.9072ZM26.778 57.7153H22.546V73.1011H26.778V69.6444H33.1941V73.0333H37.4261V57.7153H33.1941V66.7977H26.778V57.7153Z" fill="#0066B3"/>
<path fill-rule="evenodd" clip-rule="evenodd" d="M123.498 60.7653C122.816 60.7653 122.201 60.2231 122.201 59.4776C122.201 58.7998 122.816 58.1898 123.498 58.1898C124.181 58.1898 124.795 58.732 124.795 59.4776C124.795 60.2231 124.181 60.7653 123.498 60.7653ZM123.089 59.4098V58.9353H123.567C123.771 58.9353 123.84 59.0709 123.84 59.1387C123.84 59.342 123.771 59.4098 123.567 59.4098H123.089ZM123.498 60.9687C124.317 60.9687 125 60.2909 125 59.4776C125 58.6642 124.317 57.9865 123.498 57.9865C122.679 57.9865 121.997 58.6642 121.997 59.4776C121.997 60.3587 122.679 60.9687 123.498 60.9687ZM122.748 60.4263H123.089V59.7485H123.498C123.771 59.7485 123.771 59.8163 123.771 60.0874C123.771 60.2908 123.771 60.3585 123.84 60.4263H124.249V60.3585C124.181 60.3585 124.181 60.2908 124.181 60.0196C124.181 59.6808 124.113 59.613 123.976 59.5452C124.181 59.4774 124.249 59.3419 124.249 59.1385C124.249 59.003 124.181 58.6641 123.703 58.6641H122.816V60.4263H122.748Z" fill="#0066B3"/>
</svg>
