<svg width="130" height="131" viewBox="0 0 130 131" fill="none" xmlns="http://www.w3.org/2000/svg">
<g opacity="0.8">
<path fill-rule="evenodd" clip-rule="evenodd" d="M5 56.5687H22.59L19.46 60.9721H8.04188L5 56.5687Z" fill="#0066B3"/>
<path fill-rule="evenodd" clip-rule="evenodd" d="M26.5137 57.1914L23.8245 60.9721L26.8664 65.4643L23.7363 69.8677L17.7408 69.9122L14.6548 74.1376H26.0729L32.2007 65.4643L26.5137 57.1914Z" fill="#0066B3"/>
<path fill-rule="evenodd" clip-rule="evenodd" d="M11.0838 65.4644H16.1536H16.5944L10.3343 74.1376H5L11.0838 65.4644Z" fill="#0066B3"/>
<path fill-rule="evenodd" clip-rule="evenodd" d="M30.261 56.6576H35.6835L41.7672 65.4643L35.6835 74.3154H30.3492L36.477 65.4643L30.261 56.6576Z" fill="#0066B3"/>
<path fill-rule="evenodd" clip-rule="evenodd" d="M53.2731 56.5687L41.0615 74.1376H46.3077L55.9182 60.5273L53.2731 56.5687Z" fill="#0066B3"/>
<path fill-rule="evenodd" clip-rule="evenodd" d="M57.9904 63.5963L53.7141 69.7788H57.1087L60.1506 74.2266H65.4849L57.9904 63.5963Z" fill="#0066B3"/>
<path fill-rule="evenodd" clip-rule="evenodd" d="M58.6077 56.5687H63.8979L76.1095 74.1376H70.8193L58.6077 56.5687Z" fill="#0066B3"/>
<path fill-rule="evenodd" clip-rule="evenodd" d="M69.2322 56.5687H74.6547L79.3277 63.4184L76.6385 67.288L69.2322 56.5687Z" fill="#0066B3"/>
<path fill-rule="evenodd" clip-rule="evenodd" d="M88.3212 56.6576L78.7988 70.3569L81.5321 74.2265L88.3212 64.2189L90.4814 67.1989L93.1265 63.5072L88.3212 56.6576Z" fill="#0066B3"/>
<path fill-rule="evenodd" clip-rule="evenodd" d="M107.586 56.5687H102.164L92.6855 70.4459L95.2866 74.2266L107.586 56.5687Z" fill="#0066B3"/>
<path fill-rule="evenodd" clip-rule="evenodd" d="M112.877 56.6576L100.621 74.1375H105.911L115.522 60.4382L112.877 56.6576Z" fill="#0066B3"/>
<path fill-rule="evenodd" clip-rule="evenodd" d="M117.594 63.5072L113.317 69.8676H116.624L119.798 74.2264H125L117.594 63.5072Z" fill="#0066B3"/>
</g>
</svg>
