<svg width="130" height="131" viewBox="0 0 130 131" fill="none" xmlns="http://www.w3.org/2000/svg">
<path fill-rule="evenodd" clip-rule="evenodd" d="M41.0098 69.6743C40.9103 70.3496 40.8307 71.0248 40.7113 71.9186C45.0297 71.9186 49.2088 71.9186 53.5272 71.9186C53.2486 73.2691 53.0297 74.3615 52.7909 75.573C52.1143 75.5333 51.5372 75.4936 50.9601 75.4936C46.5223 75.4936 42.0844 75.5134 37.6466 75.5333C36.1342 75.5333 34.9203 74.004 35.2188 72.3357C35.5173 70.6475 35.8755 68.9593 36.2138 67.2909C36.5123 65.8411 36.8108 64.3912 37.0894 62.9215C37.4476 60.9354 38.4028 60.1211 40.4128 60.1211C45.2486 60.141 50.0844 60.1608 54.9402 60.1807C55.2387 60.1807 55.5173 60.2204 55.8755 60.2403C55.6168 61.4121 55.3979 62.5044 55.1392 63.6762C50.8208 63.6762 46.6019 63.6762 42.2038 63.6762C42.0844 64.4707 41.9849 65.1658 41.8655 66.0596C46.2834 66.0596 50.4426 66.0596 54.7014 66.0596C54.4825 67.2909 54.3033 68.3436 54.0844 69.575C53.4874 69.6346 52.9302 69.7339 52.3531 69.7339C48.771 69.6941 45.2088 69.6544 41.6267 69.5948C41.4874 69.5353 41.3481 69.5948 41.0098 69.6743Z" fill="#0066B3"/>
<path fill-rule="evenodd" clip-rule="evenodd" d="M93.6666 75.6328C93.9452 74.3419 94.1641 73.2694 94.4029 72.1174C98.7214 72.1174 102.96 72.1174 107.338 72.1174C107.497 71.4024 107.637 70.7073 107.816 69.893C107.279 69.8533 106.92 69.7937 106.582 69.7937C103.856 69.7738 101.149 69.7142 98.4228 69.7341C95.9751 69.754 95.3781 68.0459 95.6169 66.3577C95.8159 65.0469 96.0945 63.7559 96.3532 62.4649C96.6119 61.2137 97.6865 60.3199 98.9801 60.3199C104.154 60.3199 109.328 60.3597 114.483 60.3795C114.602 60.3795 114.721 60.4391 115 60.5186C114.781 61.6109 114.562 62.6834 114.343 63.8155C109.965 63.8155 105.706 63.8155 101.249 63.8155C101.07 64.5305 100.891 65.2455 100.672 66.0797C101.109 66.1392 101.368 66.1988 101.607 66.1988C104.293 66.2187 106.98 66.2386 109.667 66.2187C112.094 66.1988 113.448 67.7281 112.99 70.0916C112.771 71.2237 112.532 72.3558 112.254 73.468C111.836 75.1165 111 75.752 109.249 75.7322C105.905 75.7123 102.562 75.6328 99.2189 75.5931C97.4477 75.613 95.6567 75.6328 93.6666 75.6328Z" fill="#0066B3"/>
<path fill-rule="evenodd" clip-rule="evenodd" d="M29.2488 68.7211C29.8259 65.9008 30.3831 63.0806 30.9801 60.161C32.6517 60.161 34.2836 60.161 36.1542 60.161C35.1393 65.2653 34.1244 70.3299 33.1095 75.454C31.7164 75.454 30.5025 75.5136 29.2886 75.4342C28.3134 75.3746 27.5572 74.8383 27.0199 74.0042C25.6667 71.8393 24.3134 69.6943 22.9602 67.5493C22.7413 67.2117 22.4428 66.9138 22.005 66.3577C21.3284 69.5156 20.7114 72.3954 20.0945 75.3547C18.403 75.3547 16.7313 75.3547 15 75.3547C16.0149 70.2901 16.99 65.305 18.0249 60.1809C19.5572 60.1809 21.1493 60.0418 22.6816 60.2404C23.2985 60.3199 23.9353 61.0945 24.3333 61.6903C25.7264 63.7757 27.0398 65.9207 28.393 68.026C28.5721 68.2842 28.7711 68.5225 28.9502 68.7807C29.0697 68.7608 29.1692 68.741 29.2488 68.7211Z" fill="#0066B3"/>
<path fill-rule="evenodd" clip-rule="evenodd" d="M82.1642 60.3C81.4079 64.2524 80.6915 68.0459 79.9353 71.9982C82.5821 71.9982 85.0497 71.9982 87.7164 71.9982C88.5124 68.1849 89.3084 64.2921 90.1045 60.3994C91.8955 60.3994 93.5672 60.3994 95.3383 60.3994C95.0199 61.9485 94.7015 63.3785 94.403 64.8284C93.8856 67.4103 93.388 70.0121 92.8507 72.5941C92.7512 73.1105 92.592 73.6268 92.3731 74.1035C91.9353 75.037 91.199 75.6129 90.1244 75.6129C85.8856 75.6129 81.6468 75.6328 77.4079 75.6129C75.398 75.5931 74.3035 74.2227 74.6816 72.2564C75.3184 68.9793 76.0149 65.7221 76.6517 62.445C76.791 61.7499 76.8507 61.015 76.9502 60.3199C78.7015 60.3 80.393 60.3 82.1642 60.3Z" fill="#0066B3"/>
<path fill-rule="evenodd" clip-rule="evenodd" d="M64.4129 71.6407C63.1194 73.0906 61.985 74.3617 61.0298 75.4342C58.3034 75.4342 55.9751 75.4342 53.6666 75.4342C56.1741 72.8125 58.6617 70.2107 61.3084 67.4302C61.0497 66.9336 60.7512 66.2385 60.3532 65.6427C59.1592 63.8552 57.9054 62.1074 56.592 60.2206C58.6617 60.2206 60.592 60.2206 62.7015 60.2206C66.184 65.2057 69.7661 70.2902 73.4278 75.5335C71.2587 75.5335 69.2885 75.5335 67.2985 75.5335C66.383 74.3021 65.4875 73.1104 64.4129 71.6407Z" fill="#0066B3"/>
<path fill-rule="evenodd" clip-rule="evenodd" d="M72.7116 63.4579C70.4628 63.4579 68.2738 63.4579 66.0051 63.4579C66.0847 63.299 66.1046 63.1401 66.2041 63.0408C68.6917 60.6575 71.1793 58.294 73.6668 55.9107C74.224 55.3744 74.8011 55.1162 75.5972 55.156C77.3882 55.2354 79.1793 55.1758 80.9504 55.1758C80.9902 55.2553 81.03 55.3546 81.0698 55.434C78.3036 58.1153 75.5176 60.7766 72.7116 63.4579Z" fill="url(#paint0_linear)"/>
<g style="mix-blend-mode:screen">
<rect y="0.442139" width="130" height="130" fill=""/>
</g>
<defs>
<linearGradient id="paint0_linear" x1="66.0051" y1="55.152" x2="66.0051" y2="63.4579" gradientUnits="userSpaceOnUse">
<stop stop-color="white" stop-opacity="0.5"/>
<stop offset="1" stop-opacity="0.5"/>
</linearGradient>
</defs>
</svg>
