<svg width="130" height="131" viewBox="0 0 130 131" fill="none" xmlns="http://www.w3.org/2000/svg">
<path fill-rule="evenodd" clip-rule="evenodd" d="M115 60.93C115 68.76 92.6145 75.1071 65 75.1071C37.3857 75.1071 15 68.76 15 60.93C15 53.1002 37.3857 46.7527 65 46.7527C92.6145 46.7527 115 53.1002 115 60.93Z" fill="#0066B3"/>
<path fill-rule="evenodd" clip-rule="evenodd" d="M115 60.93C115 68.76 92.6145 75.1071 65 75.1071C37.3857 75.1071 15 68.76 15 60.93C15 53.1002 37.3857 46.7527 65 46.7527C92.6145 46.7527 115 53.1002 115 60.93Z" stroke="#0066B3" stroke-width="1.6548"/>
<path fill-rule="evenodd" clip-rule="evenodd" d="M32.1576 57.9881H36.139C36.139 57.9881 36.0203 53.2413 30.9218 53.2514C30.6071 53.2413 25.8422 53.2514 25.1557 56.7343C25.1557 56.7343 23.9201 61.1925 29.6864 62.1674C29.6864 62.1674 33.157 62.6915 32.4626 64.0051C31.8956 64.7857 30.8426 65.0326 29.4252 64.5805C28.4303 64.2629 28.5879 62.7247 28.5879 62.7247H24.469C24.469 62.7247 24.1946 67.879 30.7846 68.0184C30.7846 68.0184 36.139 67.7402 36.8255 63.7002C36.8255 63.7002 37.6814 59.749 33.316 59.1109C33.316 59.1109 28.3392 58.7836 29.137 57.0129C29.5595 56.032 32.2661 55.6775 32.1576 57.9881Z" fill="white"/>
<path fill-rule="evenodd" clip-rule="evenodd" d="M32.1576 57.9881H36.139C36.139 57.9881 36.0203 53.2413 30.9218 53.2514C30.6071 53.2413 25.8422 53.2514 25.1557 56.7343C25.1557 56.7343 23.9201 61.1925 29.6864 62.1674C29.6864 62.1674 33.157 62.6915 32.4626 64.0051C31.8956 64.7857 30.8426 65.0326 29.4252 64.5805C28.4303 64.2629 28.5879 62.7247 28.5879 62.7247H24.469C24.469 62.7247 24.1946 67.879 30.7846 68.0184C30.7846 68.0184 36.139 67.7402 36.8255 63.7002C36.8255 63.7002 37.6814 59.749 33.316 59.1109C33.316 59.1109 28.3392 58.7836 29.137 57.0129C29.5595 56.032 32.2661 55.6775 32.1576 57.9881Z" stroke="#0066B3" stroke-width="1.7052"/>
<path fill-rule="evenodd" clip-rule="evenodd" d="M37.4852 53.8414V57.8599H41.3002V68.0186H46.0235V57.6792H49.8841L49.9113 53.8523L37.4852 53.8414Z" fill="white"/>
<path fill-rule="evenodd" clip-rule="evenodd" d="M37.4852 53.8414V57.8599H41.3002V68.0186H46.0235V57.6792H49.8841L49.9113 53.8523L37.4852 53.8414Z" stroke="#0066B3" stroke-width="1.7052"/>
<path fill-rule="evenodd" clip-rule="evenodd" d="M49.9111 60.0653C49.9111 71.2184 60.1794 70.9654 63.1719 70.9654C66.1643 70.9654 76.7095 71.5877 76.5362 60.816C76.3508 49.2942 64.6081 50.3205 63.4145 50.3205C62.221 50.3205 49.9111 50.1379 49.9111 60.0653Z" fill="white"/>
<path fill-rule="evenodd" clip-rule="evenodd" d="M49.9111 60.0653C49.9111 71.2184 60.1794 70.9654 63.1719 70.9654C66.1643 70.9654 76.7095 71.5877 76.5362 60.816C76.3508 49.2942 64.6081 50.3205 63.4145 50.3205C62.221 50.3205 49.9111 50.1379 49.9111 60.0653Z" stroke="#0066B3" stroke-width="1.7052"/>
<path fill-rule="evenodd" clip-rule="evenodd" d="M67.6628 60.9301C67.6628 64.1925 65.5431 66.8372 62.929 66.8372C60.3148 66.8372 58.1953 64.1925 58.1953 60.9301C58.1953 57.6675 60.3148 55.0228 62.929 55.0228C65.5431 55.0228 67.6628 57.6675 67.6628 60.9301Z" fill="#0066B3"/>
<path fill-rule="evenodd" clip-rule="evenodd" d="M67.6628 60.9301C67.6628 64.1925 65.5431 66.8372 62.929 66.8372C60.3148 66.8372 58.1953 64.1925 58.1953 60.9301C58.1953 57.6675 60.3148 55.0228 62.929 55.0228C65.5431 55.0228 67.6628 57.6675 67.6628 60.9301Z" stroke="#0066B3" stroke-width="1.7514"/>
<path fill-rule="evenodd" clip-rule="evenodd" d="M76.5385 53.8823V68.0186H81.1243V63.0056H83.5762C85.2639 63.0056 85.236 68.0037 85.236 68.0037H89.523C89.523 68.0037 89.9715 61.5721 87.5716 61.3797C87.5716 61.3797 89.524 61.0016 89.524 57.5551C89.524 55.0247 87.483 53.8414 85.667 53.8414L76.5385 53.8823Z" fill="white"/>
<path fill-rule="evenodd" clip-rule="evenodd" d="M76.5385 53.8823V68.0186H81.1243V63.0056H83.5762C85.2639 63.0056 85.236 68.0037 85.236 68.0037H89.523C89.523 68.0037 89.9715 61.5721 87.5716 61.3797C87.5716 61.3797 89.524 61.0016 89.524 57.5551C89.524 55.0247 87.483 53.8414 85.667 53.8414L76.5385 53.8823Z" stroke="#0066B3" stroke-width="1.7514"/>
<path fill-rule="evenodd" clip-rule="evenodd" d="M81.2721 56.8224L81.305 59.7485H84.2199C84.2199 59.7485 85.4141 59.5179 85.4141 58.4106C85.4141 57.3032 84.2708 56.7949 84.2708 56.7949L81.2721 56.8224Z" fill="#0066B3"/>
<path fill-rule="evenodd" clip-rule="evenodd" d="M81.2721 56.8224L81.305 59.7485H84.2199C84.2199 59.7485 85.4141 59.5179 85.4141 58.4106C85.4141 57.3032 84.2708 56.7949 84.2708 56.7949L81.2721 56.8224Z" stroke="#0066B3" stroke-width="1.7514"/>
<path fill-rule="evenodd" clip-rule="evenodd" d="M91.3313 68.0186H95.5427V59.4577L97.8567 67.8377H101.42L103.642 59.1861V67.8828H107.899V53.8866H101.652L99.7541 61.768L97.533 53.8866L91.3313 53.8414V68.0186Z" fill="white"/>
<path fill-rule="evenodd" clip-rule="evenodd" d="M91.3313 68.0186H95.5427V59.4577L97.8567 67.8377H101.42L103.642 59.1861V67.8828H107.899V53.8866H101.652L99.7541 61.768L97.533 53.8866L91.3313 53.8414V68.0186Z" stroke="#0066B3" stroke-width="1.7514"/>
<path fill-rule="evenodd" clip-rule="evenodd" d="M73.389 40.8453H90.1479L75.8795 49.4744H80.6008L62.3373 60.9297L69.6534 52.5527H65.2429L72.5588 45.5384H68.9267L73.389 40.8453Z" fill="#0066B3"/>
<mask id="mask0" style="mask-type:alpha" maskUnits="userSpaceOnUse" x="62" y="39" width="29" height="22">
<path fill-rule="evenodd" clip-rule="evenodd" d="M62.4108 39.7773H90.051V60.2772H62.4108V39.7773Z" fill="white"/>
</mask>
<g mask="url(#mask0)">
<path fill-rule="evenodd" clip-rule="evenodd" d="M73.3948 39.7773H90.051L75.8701 48.5851H80.5625L62.4108 60.2773L69.682 51.7269H65.2986L72.5697 44.5675H68.9599L73.3948 39.7773Z" fill=""/>
</g>
<g style="mix-blend-mode:screen">
<rect y="0.442139" width="130" height="130" fill=""/>
</g>
</svg>
